<?xml version="1.0" encoding="utf-8"?>
<!-- Generator: Adobe Illustrator 27.5.0, SVG Export Plug-In . SVG Version: 6.00 Build 0)  -->
<svg version="1.1" xmlns="http://www.w3.org/2000/svg" xmlns:xlink="http://www.w3.org/1999/xlink" x="0px" y="0px"
	 viewBox="0 0 500 500" style="enable-background:new 0 0 500 500;" xml:space="preserve">
<g id="BACKGROUND">
	<rect style="fill:#FFFFFF;" width="500" height="500"/>
</g>
<g id="OBJECTS">
	<path style="opacity:0.1;fill:#F88988;" d="M285.241,444.374c0,7.87-43.521,14.25-97.207,14.25c-53.686,0-97.207-6.38-97.207-14.25
		c0-7.869,43.521-14.249,97.207-14.249C241.72,430.125,285.241,436.505,285.241,444.374z"/>
	<g>
		<path style="opacity:0.5;fill:#FFE1E1;" d="M436.348,126.956c0,0-22.592-69.121-85.387-81.102
			c-62.794-11.98-101.978,23.332-180.21,9.466c-56.842-10.075-83.419,8.789-88.178,66.031c-4.76,57.242-4.826,75.635-22.003,99.998
			c-20.157,28.591-47.5,74.81,21.275,101.685s286.313,73.318,314.91,18.488C425.353,286.69,467.727,190.857,436.348,126.956z"/>
		<path style="fill:#FFE1E1;" d="M429.43,110.086c0,0-31.923-65.338-95.771-68.53c-63.847-3.192-97.778,37.193-177.175,34.266
			c-57.688-2.128-81.405,20.227-78.212,77.577c3.192,57.352,5.667,75.577-7.981,102.081c-16.015,31.1-36.711,80.652,35.116,97.769
			c71.827,17.119,293.695,33.07,314.445-25.184C440.603,269.808,469.334,169.04,429.43,110.086z"/>
	</g>
	<g>
		<g style="opacity:0.7;">
			<g>
				<path style="fill:#F7B737;" d="M128.621,346.199c0,0,0.01-0.131,0.032-0.382c0.016-0.251,0.062-0.638,0.07-1.103
					c0.023-0.478,0.049-1.063,0.045-1.726c0.014-0.676-0.003-1.43-0.034-2.261c-0.049-1.678-0.206-3.643-0.477-5.827
					c-0.26-2.193-0.677-4.575-1.243-7.087c-1.135-5.027-2.945-10.525-5.471-15.98c-2.508-5.466-5.757-10.868-9.508-15.893
					c-3.749-5.025-8.017-9.662-12.552-13.608c-4.518-3.961-9.289-7.242-13.8-9.738c-2.255-1.247-4.428-2.313-6.462-3.176
					c-2.028-0.867-3.872-1.567-5.473-2.082c-0.792-0.263-1.512-0.488-2.168-0.664c-0.635-0.188-1.205-0.327-1.67-0.438
					c-0.453-0.119-0.839-0.184-1.082-0.237c-0.25-0.05-0.378-0.077-0.378-0.077s-0.011,0.131-0.031,0.384
					c-0.018,0.249-0.064,0.638-0.077,1.106c-0.025,0.478-0.05,1.063-0.05,1.727c-0.015,0.677,0.001,1.432,0.029,2.267
					c0.046,1.68,0.2,3.647,0.465,5.835c0.256,2.195,0.67,4.579,1.234,7.095c1.13,5.03,2.941,10.528,5.474,15.976
					c2.516,5.462,5.769,10.86,9.541,15.869c3.771,5.01,8.042,9.643,12.587,13.584c4.524,3.955,9.295,7.236,13.802,9.735
					c2.253,1.249,4.422,2.318,6.454,3.182c2.021,0.874,3.861,1.574,5.459,2.093c0.79,0.265,1.509,0.491,2.161,0.668
					c0.634,0.189,1.202,0.33,1.666,0.441c0.451,0.121,0.835,0.186,1.08,0.239C128.493,346.172,128.621,346.199,128.621,346.199z"/>
				<path style="fill:#EA9706;" d="M97.397,322.95c6.602,2.954,13.198,5.908,19.798,8.863c-4.512-6.023-9.024-12.042-13.537-18.063
					c-7.154-3.202-14.311-6.406-21.467-9.609c-0.607-0.271-0.207-1.22,0.398-0.947c6.6,2.953,13.198,5.907,19.795,8.859
					c-4.51-6.019-9.022-12.04-13.535-18.06c-5.121-2.294-10.241-4.585-15.365-6.877c-0.604-0.27-0.204-1.219,0.401-0.949
					c4.564,2.043,9.128,4.087,13.692,6.129c-5.337-7.119-10.672-14.238-16.009-21.357c-0.396-0.531,0.426-1.149,0.824-0.617
					c5.333,7.118,10.671,14.236,16.006,21.357c-0.655-4.735-1.308-9.471-1.963-14.204c-0.091-0.657,0.931-0.775,1.023-0.118
					c0.737,5.34,1.475,10.68,2.214,16.019c4.51,6.02,9.022,12.04,13.534,18.058c-0.078-0.565-0.157-1.134-0.234-1.7
					c-0.373-2.685-0.742-5.37-1.114-8.054c-0.538-3.906-1.079-7.811-1.617-11.716c-0.092-0.659,0.932-0.777,1.022-0.118
					c1.072,7.765,2.144,15.525,3.217,23.289c4.512,6.018,9.022,12.038,13.535,18.057c-0.078-0.566-0.158-1.134-0.235-1.701
					c-0.371-2.685-0.743-5.37-1.112-8.054c-0.541-3.904-1.081-7.811-1.618-11.717c-0.091-0.655,0.931-0.774,1.021-0.116
					c1.072,7.764,2.146,15.524,3.218,23.289c2.301,3.067,4.599,6.135,6.898,9.203c0.398,0.529-0.425,1.147-0.823,0.617
					c-2.3-3.069-4.599-6.136-6.898-9.203c-7.155-3.203-14.313-6.409-21.469-9.61C96.392,323.628,96.793,322.679,97.397,322.95z"/>
			</g>
			<path style="fill:#F88988;" d="M61.319,332.331c11.869-4.427,23.006,0.648,27.867,3.487c-5.834-3.865-11.321-8.232-16.283-13.163
				c-15.858-4.764-21.98-25.747-21.98-25.747c17.071,2.905,22.714,20.123,23.984,25.018c5.431,5.289,11.463,9.895,17.886,13.915
				c-9.295-11.073-9.213-25.972-9.213-25.972c13.578,8.022,16.603,24.55,17.266,30.61c4.379,2.329,8.88,4.435,13.45,6.331
				c2.585,1.073,5.366,2.145,8.203,3.153c-13.093-8.408-16.774-24.475-16.774-24.475c16.103,5.038,22.667,22.305,24.155,26.908
				c3.219,0.97,6.361,1.79,9.232,2.371c1.19,0.241,1.075,2.154-0.135,1.907c-5.868-1.184-11.657-2.933-17.321-4.975
				c-22.738,15.182-40.534,4.907-40.534,4.907c13.14-8.798,27.163-8.292,35.049-6.982c-1.113-0.442-2.222-0.893-3.324-1.349
				c-4.003-1.661-7.955-3.495-11.818-5.505v0.006c-0.017-0.01-0.031-0.02-0.046-0.028c-3.147-1.639-6.237-3.394-9.24-5.279
				c0.002,0.003,0.011,0.01,0.011,0.01C69.64,346.849,61.319,332.331,61.319,332.331z"/>
		</g>
		<g style="opacity:0.7;">
			<g>
				<path style="fill:#F7B737;" d="M399.108,324.003c0,0-0.055-0.134-0.163-0.391c-0.101-0.258-0.278-0.648-0.445-1.134
					c-0.185-0.493-0.409-1.099-0.628-1.796c-0.242-0.705-0.48-1.501-0.727-2.385c-0.514-1.776-1.012-3.892-1.464-6.276
					c-0.468-2.39-0.833-5.029-1.084-7.857c-0.505-5.658-0.458-12.041,0.355-18.617c0.789-6.582,2.378-13.347,4.621-19.885
					c2.241-6.539,5.157-12.845,8.587-18.516c3.407-5.681,7.309-10.732,11.202-14.872c1.946-2.07,3.867-3.921,5.712-5.512
					c1.835-1.595,3.535-2.95,5.041-4.031c0.743-0.542,1.423-1.021,2.052-1.427c0.603-0.411,1.154-0.75,1.605-1.023
					c0.436-0.278,0.818-0.475,1.056-0.614c0.246-0.136,0.371-0.208,0.371-0.208s0.056,0.134,0.162,0.393
					c0.103,0.256,0.282,0.647,0.455,1.135c0.186,0.492,0.409,1.099,0.633,1.796c0.243,0.706,0.481,1.503,0.733,2.389
					c0.518,1.778,1.02,3.895,1.479,6.281c0.471,2.391,0.84,5.032,1.096,7.862c0.51,5.661,0.462,12.044-0.359,18.614
					c-0.8,6.581-2.395,13.344-4.665,19.873c-2.269,6.528-5.19,12.831-8.633,18.5c-3.416,5.677-7.316,10.729-11.204,14.871
					c-1.944,2.07-3.86,3.924-5.701,5.515c-1.826,1.599-3.523,2.954-5.024,4.037c-0.74,0.544-1.418,1.023-2.043,1.429
					c-0.602,0.412-1.151,0.752-1.6,1.025c-0.434,0.278-0.815,0.477-1.054,0.614C399.233,323.931,399.108,324.003,399.108,324.003z"
					/>
				<path style="fill:#EA9706;" d="M424.043,289.075c-5.932,5.326-11.86,10.65-17.792,15.976c2.706-7.841,5.414-15.68,8.12-23.521
					c6.431-5.772,12.861-11.549,19.292-17.322c0.547-0.488-0.193-1.35-0.738-0.86c-5.931,5.324-11.861,10.649-17.79,15.972
					c2.705-7.838,5.412-15.679,8.12-23.518c4.601-4.133,9.203-8.264,13.809-12.398c0.543-0.489-0.196-1.35-0.741-0.86
					c-4.102,3.682-8.203,7.365-12.306,11.047c3.201-9.271,6.401-18.543,9.603-27.814c0.237-0.689-0.834-1.061-1.073-0.369
					c-3.198,9.269-6.401,18.54-9.601,27.812c-0.909-5.191-1.819-10.38-2.728-15.571c-0.126-0.72-1.239-0.5-1.114,0.222
					c1.026,5.854,2.053,11.707,3.077,17.56c-2.705,7.839-5.412,15.679-8.119,23.517c-0.108-0.622-0.217-1.243-0.327-1.864
					c-0.514-2.944-1.031-5.888-1.546-8.83c-0.751-4.28-1.5-8.561-2.251-12.842c-0.127-0.722-1.24-0.501-1.114,0.222
					c1.492,8.51,2.984,17.017,4.476,25.527c-2.707,7.838-5.413,15.677-8.12,23.517c-0.108-0.621-0.216-1.244-0.326-1.866
					c-0.516-2.942-1.03-5.886-1.548-8.828c-0.749-4.28-1.499-8.563-2.251-12.843c-0.125-0.719-1.238-0.5-1.112,0.222
					c1.492,8.511,2.982,17.018,4.474,25.529c-1.38,3.995-2.758,7.989-4.138,11.984c-0.239,0.69,0.832,1.061,1.072,0.371
					c1.379-3.997,2.758-7.991,4.138-11.986c6.431-5.772,12.861-11.55,19.294-17.323
					C425.327,289.446,424.586,288.586,424.043,289.075z"/>
			</g>
			<path style="fill:#F88988;" d="M462.181,288.365c-13.892,1.416-22.425,11.866-25.846,17.046
				c3.881-6.67,7.176-13.664,9.675-20.958c13.352-12.447,9.166-36.177,9.166-36.177c-15.457,11.201-12.635,30.975-11.503,36.432
				c-2.788,7.879-6.504,15.377-10.893,22.484c3.786-15.482-3.564-30.17-3.564-30.17c-9.509,14.556-4.436,32.369-2.134,38.684
				c-3.192,4.438-6.614,8.716-10.206,12.821c-2.033,2.322-4.259,4.737-6.571,7.12c8.841-14.701,4.641-32.379,4.641-32.379
				c-13.46,12.836-11.524,33.107-10.75,38.385c-2.708,2.528-5.415,4.874-7.97,6.848c-1.06,0.819-0.012,2.654,1.065,1.821
				c5.223-4.034,10.092-8.587,14.695-13.37c29.885,3.914,42.463-14.925,42.463-14.925c-17.281-2.286-30.897,5.056-38.054,10.197
				c0.886-0.98,1.762-1.966,2.628-2.955c3.147-3.596,6.158-7.336,8.998-11.207l0.002,0.005c0.012-0.018,0.021-0.034,0.031-0.051
				c2.313-3.155,4.51-6.397,6.56-9.726c-0.001,0.003-0.007,0.014-0.007,0.014C461.04,306.775,462.181,288.365,462.181,288.365z"/>
		</g>
	</g>
	<g>
		<path style="opacity:0.1;fill:#F88988;" d="M317.017,108.232V88.924c0-2.306-1.905-4.175-4.256-4.175
			c-2.352,0-4.257,1.869-4.257,4.175v19.308h-12.771V88.924c0-2.306-1.905-4.175-4.257-4.175c-2.351,0-4.256,1.869-4.256,4.175
			v19.308H274.45V88.924c0-2.306-1.906-4.175-4.257-4.175c-2.351,0-4.257,1.869-4.257,4.175v19.308h-12.769V88.924
			c0-2.306-1.906-4.175-4.257-4.175c-2.351,0-4.257,1.869-4.257,4.175v19.308h-12.77V88.924c0-2.306-1.906-4.175-4.257-4.175
			c-2.351,0-4.257,1.869-4.257,4.175v19.308H210.6V88.924c0-2.306-1.905-4.175-4.256-4.175c-2.352,0-4.257,1.869-4.257,4.175v19.308
			h-93.115v39.66v226.13h301.16v-226.13v-39.66H317.017z"/>
		<g>
			<g>
				<rect x="102.972" y="102.232" style="fill:#FFFFFF;" width="301.16" height="265.791"/>
				<rect x="102.972" y="102.232" style="fill:#F7B737;" width="301.16" height="39.66"/>
			</g>
			<g>
				<g>
					<path style="fill:#F88988;" d="M247.167,121.54c0,2.305-1.906,4.174-4.257,4.174l0,0c-2.351,0-4.257-1.869-4.257-4.174V82.924
						c0-2.306,1.906-4.175,4.257-4.175l0,0c2.351,0,4.257,1.869,4.257,4.175V121.54z"/>
					<path style="fill:#F88988;" d="M268.45,121.54c0,2.305-1.906,4.174-4.257,4.174l0,0c-2.351,0-4.257-1.869-4.257-4.174V82.924
						c0-2.306,1.906-4.175,4.257-4.175l0,0c2.35,0,4.257,1.869,4.257,4.175V121.54z"/>
				</g>
				<g>
					<path style="fill:#F88988;" d="M204.6,121.54c0,2.305-1.905,4.174-4.256,4.174l0,0c-2.352,0-4.257-1.869-4.257-4.174V82.924
						c0-2.306,1.905-4.175,4.257-4.175l0,0c2.35,0,4.256,1.869,4.256,4.175V121.54z"/>
					<path style="fill:#F88988;" d="M225.884,121.54c0,2.305-1.906,4.174-4.257,4.174l0,0c-2.351,0-4.257-1.869-4.257-4.174V82.924
						c0-2.306,1.906-4.175,4.257-4.175l0,0c2.35,0,4.257,1.869,4.257,4.175V121.54z"/>
				</g>
				<g>
					<path style="fill:#F88988;" d="M289.733,121.54c0,2.305-1.905,4.174-4.257,4.174l0,0c-2.351,0-4.256-1.869-4.256-4.174V82.924
						c0-2.306,1.905-4.175,4.256-4.175l0,0c2.352,0,4.257,1.869,4.257,4.175V121.54z"/>
					<path style="fill:#F88988;" d="M311.017,121.54c0,2.305-1.905,4.174-4.256,4.174l0,0c-2.352,0-4.257-1.869-4.257-4.174V82.924
						c0-2.306,1.905-4.175,4.257-4.175l0,0c2.351,0,4.256,1.869,4.256,4.175V121.54z"/>
				</g>
			</g>
		</g>
		<g>
			<g>
				<g>
					<g>
						<path style="fill:#FFE1E1;" d="M144.233,187.408h-36.763v-36.763h36.763V187.408z M109.471,185.408h32.763v-32.763h-32.763
							V185.408z"/>
					</g>
					<g>
						<path style="fill:#FFE1E1;" d="M132.109,177.887c0.915,0.144,1.562,0.744,1.562,1.714c0,1.202-0.942,2.045-2.405,2.045
							c-0.861,0-1.768-0.305-2.342-0.763l0.646-1.211c0.467,0.503,1.005,0.763,1.57,0.763c0.628,0,0.969-0.305,0.969-0.816
							c0-0.529-0.35-0.79-0.978-0.79h-1.005v-0.852l1.399-1.454h-2.288v-1.22h4.145v0.906l-1.57,1.633L132.109,177.887z"/>
						<path style="fill:#FFE1E1;" d="M135.617,181.575v-5.007h-1.157v-1.283h2.755v6.29H135.617z"/>
					</g>
				</g>
				<g>
					<g>
						<path style="fill:#FFE1E1;" d="M186.8,187.408h-36.763v-36.763H186.8V187.408z"/>
					</g>
					<g>
						<path style="fill:#F7B737;" d="M178.185,181.575v-5.007h-1.157v-1.283h2.754v6.29H178.185z"/>
					</g>
				</g>
				<g>
					<g>
						<path style="fill:#FFE1E1;" d="M229.366,187.408h-36.763v-36.763h36.763V187.408z M194.604,185.408h32.763v-32.763h-32.763
							V185.408z"/>
					</g>
					<g>
						<path style="fill:#F7B737;" d="M222.733,176.864c0,0.683-0.502,1.391-1.184,2.091l-1.274,1.354h2.646v1.266h-4.701v-1.032
							l2.243-2.377c0.35-0.368,0.602-0.79,0.602-1.077c0-0.358-0.261-0.574-0.709-0.574c-0.512,0-1.14,0.305-1.714,0.799
							l-0.602-1.148c0.79-0.593,1.651-0.942,2.549-0.942C221.837,175.222,222.733,175.869,222.733,176.864z"/>
					</g>
				</g>
				<g>
					<g>
						<path style="fill:#FFE1E1;" d="M271.934,187.408h-36.763v-36.763h36.763V187.408z M237.171,185.408h32.763v-32.763h-32.763
							V185.408z"/>
					</g>
					<g>
						<path style="fill:#F7B737;" d="M263.954,177.887c0.915,0.144,1.561,0.744,1.561,1.714c0,1.202-0.942,2.045-2.404,2.045
							c-0.861,0-1.768-0.305-2.342-0.763l0.646-1.211c0.467,0.503,1.005,0.763,1.57,0.763c0.628,0,0.969-0.305,0.969-0.816
							c0-0.529-0.35-0.79-0.978-0.79h-1.005v-0.852l1.399-1.454h-2.288v-1.22h4.145v0.906l-1.57,1.633L263.954,177.887z"/>
					</g>
				</g>
				<g>
					<g>
						<path style="fill:#FFE1E1;" d="M314.501,187.408h-36.764v-36.763h36.764V187.408z M279.737,185.408h32.764v-32.763h-32.764
							V185.408z"/>
					</g>
					<g>
						<path style="fill:#F7B737;" d="M305.901,178.982v-1.347h1.48v1.347h0.853v1.211h-0.853v1.382h-1.48v-1.382h-2.979v-1.067
							l1.982-3.831h1.535l-1.866,3.688H305.901z"/>
					</g>
				</g>
				<g>
					<g>
						<path style="fill:#FFE1E1;" d="M399.634,187.408h-36.763v-36.763h36.763V187.408z M364.871,185.408h32.763v-32.763h-32.763
							V185.408z"/>
					</g>
					<g>
						<path style="fill:#F7B737;" d="M393.127,175.743l-0.61,1.112c-0.358-0.26-0.834-0.403-1.318-0.403
							c-1.006,0-1.49,0.637-1.472,1.669c0.296-0.422,0.798-0.673,1.498-0.673c1.238,0,2.027,0.807,2.027,2.027
							c0,1.328-0.933,2.171-2.351,2.171c-1.687,0-2.709-1.193-2.709-3.122c0-2.001,1.139-3.302,2.906-3.302
							C391.799,175.222,392.598,175.419,393.127,175.743z M389.896,179.493c0,0.467,0.296,0.88,0.942,0.88
							c0.574,0,0.934-0.323,0.934-0.906c0-0.539-0.332-0.852-0.906-0.852C390.247,178.614,389.896,178.982,389.896,179.493z"/>
					</g>
				</g>
				<g>
					<g>
						<path style="fill:#FFE1E1;" d="M357.067,187.408h-36.763v-36.763h36.763V187.408z M322.305,185.408h32.763v-32.763h-32.763
							V185.408z"/>
					</g>
					<g>
						<path style="fill:#F7B737;" d="M347.698,176.559v1.014h0.566c1.435,0,2.378,0.771,2.378,1.893
							c0,1.318-0.987,2.171-2.504,2.171c-0.825,0-1.768-0.314-2.422-0.78l0.637-1.212c0.467,0.503,1.031,0.772,1.597,0.772
							c0.619,0,0.979-0.306,0.979-0.844c0-0.493-0.359-0.78-0.979-0.78c-0.322,0-1.318,0.018-1.704,0.045v-3.544h4.118v1.265
							H347.698z"/>
					</g>
				</g>
			</g>
			<g>
				<g>
					<g>
						<path style="fill:#FFE1E1;" d="M144.233,229.976h-36.763v-36.764h36.763V229.976z M109.471,227.976h32.763v-32.764h-32.763
							V227.976z"/>
					</g>
					<g>
						<path style="fill:#F7B737;" d="M135.636,224.141h-1.686l2.242-5.016h-1.731v0.88h-1.4v-2.145h4.89v1.085L135.636,224.141z"/>
					</g>
				</g>
				<g>
					<g>
						<path style="fill:#FFE1E1;" d="M186.8,229.976h-36.763v-36.764H186.8V229.976z M152.037,227.976H184.8v-32.764h-32.763
							V227.976z"/>
					</g>
					<g>
						<path style="fill:#F7B737;" d="M180.023,219.476c0,0.547-0.296,1.031-0.79,1.301c0.691,0.287,1.122,0.888,1.122,1.588
							c0,1.131-1.005,1.848-2.575,1.848c-1.57,0-2.575-0.708-2.575-1.821c0-0.718,0.467-1.327,1.193-1.614
							c-0.529-0.297-0.87-0.799-0.87-1.346c0-1.005,0.879-1.643,2.243-1.643C179.153,217.789,180.023,218.444,180.023,219.476z
							 M176.713,222.23c0,0.529,0.377,0.825,1.067,0.825c0.69,0,1.076-0.287,1.076-0.825c0-0.52-0.386-0.816-1.076-0.816
							C177.09,221.414,176.713,221.71,176.713,222.23z M176.874,219.565c0,0.449,0.323,0.7,0.906,0.7c0.583,0,0.906-0.251,0.906-0.7
							c0-0.466-0.323-0.727-0.906-0.727C177.197,218.838,176.874,219.099,176.874,219.565z"/>
					</g>
				</g>
				<g>
					<g>
						<path style="fill:#FFE1E1;" d="M229.366,229.976h-36.763v-36.764h36.763V229.976z"/>
					</g>
					<g>
						<path style="fill:#F7B737;" d="M217.952,223.683l0.609-1.112c0.359,0.261,0.835,0.404,1.319,0.404
							c1.005,0,1.489-0.638,1.472-1.669c-0.297,0.422-0.799,0.673-1.499,0.673c-1.238,0-2.027-0.808-2.027-2.028
							c0-1.327,0.933-2.171,2.351-2.171c1.687,0,2.71,1.193,2.71,3.122c0,2.001-1.14,3.302-2.907,3.302
							C219.279,224.204,218.481,224.006,217.952,223.683z M221.182,219.933c0-0.467-0.296-0.879-0.942-0.879
							c-0.574,0-0.933,0.322-0.933,0.906c0,0.538,0.332,0.852,0.906,0.852C220.832,220.812,221.182,220.445,221.182,219.933z"/>
					</g>
					<g>
						<path style="fill:#F88988;" d="M229.366,202.892h-36.763v-9.68h36.763V202.892z"/>
					</g>
					<rect x="196.735" y="197.058" style="fill:#FFE1E1;" width="28.5" height="1.994"/>
					<g>
						<rect x="196.735" y="205.203" style="fill:#FFFFFF;" width="28.5" height="0.855"/>
						<rect x="196.735" y="209.203" style="fill:#FFFFFF;" width="28.5" height="0.855"/>
						<rect x="196.735" y="213.203" style="fill:#FFFFFF;" width="28.5" height="0.855"/>
					</g>
				</g>
				<g>
					<g>
						<path style="fill:#FFE1E1;" d="M271.934,229.976h-36.763v-36.764h36.763V229.976z M237.171,227.976h32.763v-32.764h-32.763
							V227.976z"/>
					</g>
					<g>
						<path style="fill:#F7B737;" d="M256.561,224.141v-5.007h-1.157v-1.282h2.755v6.289H256.561z"/>
						<path style="fill:#F7B737;" d="M265.417,220.992c0,2.055-0.996,3.194-2.772,3.194c-1.794,0-2.79-1.14-2.79-3.194
							c0-2.046,0.996-3.185,2.79-3.185C264.421,217.807,265.417,218.946,265.417,220.992z M261.496,220.992
							c0,1.436,0.341,2.028,1.148,2.028c0.79,0,1.14-0.593,1.14-2.028s-0.35-2.019-1.14-2.019
							C261.837,218.973,261.496,219.556,261.496,220.992z"/>
					</g>
				</g>
				<g>
					<g>
						<path style="fill:#FFE1E1;" d="M314.501,229.976h-36.764v-36.764h36.764V229.976z M279.737,227.976h32.764v-32.764h-32.764
							V227.976z"/>
					</g>
					<g>
						<path style="fill:#F7B737;" d="M301.739,224.141v-5.007h-1.157v-1.282h2.755v6.289H301.739z"/>
						<path style="fill:#F7B737;" d="M305.884,224.141v-5.007h-1.157v-1.282h2.755v6.289H305.884z"/>
					</g>
				</g>
				<g>
					<g>
						<path style="fill:#FFE1E1;" d="M399.634,229.976h-36.763v-36.764h36.763V229.976z M364.871,227.976h32.763v-32.764h-32.763
							V227.976z"/>
					</g>
					<g>
						<path style="fill:#F7B737;" d="M385.563,224.141v-5.007h-1.158v-1.282h2.755v6.289H385.563z"/>
						<path style="fill:#F7B737;" d="M391.654,220.454c0.915,0.144,1.561,0.745,1.561,1.714c0,1.202-0.942,2.045-2.404,2.045
							c-0.861,0-1.768-0.305-2.342-0.762l0.646-1.212c0.467,0.503,1.005,0.763,1.57,0.763c0.628,0,0.969-0.305,0.969-0.816
							c0-0.529-0.35-0.789-0.978-0.789h-1.005v-0.852l1.399-1.454h-2.288v-1.22h4.145v0.906l-1.57,1.633L391.654,220.454z"/>
					</g>
				</g>
				<g>
					<g>
						<path style="fill:#FFE1E1;" d="M357.067,229.976h-36.763v-36.764h36.763V229.976z M322.305,227.976h32.763v-32.764h-32.763
							V227.976z"/>
					</g>
					<g>
						<path style="fill:#F7B737;" d="M342.62,224.141v-5.007h-1.158v-1.282h2.755v6.289H342.62z"/>
						<path style="fill:#F7B737;" d="M350.434,219.431c0,0.682-0.502,1.391-1.185,2.09l-1.273,1.355h2.647v1.265h-4.701v-1.032
							l2.243-2.377c0.35-0.368,0.6-0.79,0.6-1.077c0-0.358-0.26-0.574-0.709-0.574c-0.511,0-1.139,0.306-1.713,0.799l-0.602-1.148
							c0.79-0.592,1.651-0.942,2.548-0.942C349.536,217.789,350.434,218.435,350.434,219.431z"/>
					</g>
				</g>
			</g>
			<g>
				<g>
					<g>
						<path style="fill:#FFE1E1;" d="M144.233,272.542h-36.763v-36.763h36.763V272.542z M109.471,270.542h32.763v-32.763h-32.763
							V270.542z"/>
					</g>
					<g>
						<path style="fill:#F7B737;" d="M129.489,266.708V261.7h-1.157v-1.281h2.755v6.289H129.489z"/>
						<path style="fill:#F7B737;" d="M135.636,264.114v-1.346h1.48v1.346h0.852v1.211h-0.852v1.383h-1.48v-1.383h-2.979v-1.066
							l1.983-3.832h1.534l-1.866,3.688H135.636z"/>
					</g>
				</g>
				<g>
					<g>
						<path style="fill:#FFE1E1;" d="M186.8,272.542h-36.763v-36.763H186.8V272.542z M152.037,270.542H184.8v-32.763h-32.763
							V270.542z"/>
					</g>
					<g>
						<path style="fill:#F7B737;" d="M172.397,266.708V261.7h-1.157v-1.281h2.754v6.289H172.397z"/>
						<path style="fill:#F7B737;" d="M177.431,261.692v1.014h0.565c1.436,0,2.377,0.771,2.377,1.893
							c0,1.318-0.986,2.172-2.503,2.172c-0.825,0-1.768-0.314-2.423-0.781l0.638-1.211c0.466,0.502,1.031,0.772,1.597,0.772
							c0.619,0,0.979-0.305,0.979-0.844c0-0.492-0.359-0.779-0.979-0.779c-0.323,0-1.318,0.018-1.705,0.045v-3.545h4.119v1.266
							H177.431z"/>
					</g>
				</g>
				<g>
					<g>
						<path style="fill:#FFE1E1;" d="M229.366,272.542h-36.763v-36.763h36.763V272.542z M194.604,270.542h32.763v-32.763h-32.763
							V270.542z"/>
					</g>
					<g>
						<path style="fill:#F7B737;" d="M214.633,266.708V261.7h-1.157v-1.281h2.754v6.289H214.633z"/>
						<path style="fill:#F7B737;" d="M222.86,260.876l-0.61,1.111c-0.359-0.26-0.835-0.402-1.319-0.402
							c-1.005,0-1.489,0.637-1.471,1.668c0.296-0.422,0.798-0.672,1.498-0.672c1.238,0,2.027,0.807,2.027,2.027
							c0,1.328-0.933,2.17-2.351,2.17c-1.687,0-2.71-1.191-2.71-3.121c0-2.002,1.14-3.303,2.907-3.303
							C221.532,260.354,222.331,260.552,222.86,260.876z M219.63,264.626c0,0.467,0.296,0.879,0.942,0.879
							c0.574,0,0.933-0.322,0.933-0.906c0-0.537-0.332-0.852-0.906-0.852C219.979,263.747,219.63,264.114,219.63,264.626z"/>
					</g>
				</g>
				<g>
					<g>
						<path style="fill:#FFE1E1;" d="M271.934,272.542h-36.763v-36.763h36.763V272.542z M237.171,270.542h32.763v-32.763h-32.763
							V270.542z"/>
					</g>
					<g>
						<path style="fill:#F7B737;" d="M257.54,266.708V261.7h-1.158v-1.281h2.755v6.289H257.54z"/>
						<path style="fill:#F7B737;" d="M263.335,266.708h-1.687l2.243-5.016h-1.732v0.879h-1.399v-2.145h4.89v1.086L263.335,266.708z"
							/>
					</g>
				</g>
				<g>
					<g>
						<path style="fill:#FFE1E1;" d="M314.501,272.542h-36.764v-36.763h36.764V272.542z"/>
					</g>
					<g>
						<path style="fill:#F7B737;" d="M299.675,266.708V261.7h-1.157v-1.281h2.755v6.289H299.675z"/>
						<path style="fill:#F7B737;" d="M307.723,262.042c0,0.547-0.296,1.031-0.789,1.301c0.69,0.287,1.121,0.889,1.121,1.588
							c0,1.131-1.005,1.848-2.575,1.848s-2.575-0.707-2.575-1.82c0-0.719,0.467-1.328,1.193-1.615
							c-0.529-0.297-0.87-0.799-0.87-1.346c0-1.004,0.879-1.643,2.243-1.643C306.852,260.354,307.723,261.011,307.723,262.042z
							 M304.412,264.796c0,0.529,0.377,0.826,1.067,0.826c0.691,0,1.077-0.287,1.077-0.826c0-0.52-0.386-0.816-1.077-0.816
							C304.789,263.979,304.412,264.276,304.412,264.796z M304.573,262.132c0,0.449,0.323,0.699,0.906,0.699s0.906-0.25,0.906-0.699
							c0-0.467-0.323-0.727-0.906-0.727S304.573,261.665,304.573,262.132z"/>
					</g>
				</g>
				<g>
					<g>
						<path style="fill:#FFE1E1;" d="M399.634,272.542h-36.763v-36.763h36.763V272.542z M364.871,270.542h32.763v-32.763h-32.763
							V270.542z"/>
					</g>
					<g>
						<path style="fill:#F7B737;" d="M386.245,261.997c0,0.682-0.502,1.391-1.185,2.09l-1.273,1.355h2.647v1.266h-4.701v-1.033
							l2.243-2.377c0.35-0.367,0.601-0.789,0.601-1.076c0-0.359-0.26-0.574-0.708-0.574c-0.512,0-1.14,0.305-1.714,0.799
							l-0.602-1.148c0.79-0.592,1.651-0.943,2.548-0.943C385.348,260.354,386.245,261.001,386.245,261.997z"/>
						<path style="fill:#F7B737;" d="M393.118,263.558c0,2.055-0.996,3.195-2.772,3.195c-1.794,0-2.79-1.141-2.79-3.195
							c0-2.045,0.996-3.184,2.79-3.184C392.122,260.374,393.118,261.513,393.118,263.558z M389.197,263.558
							c0,1.436,0.341,2.029,1.148,2.029c0.79,0,1.14-0.594,1.14-2.029c0-1.435-0.35-2.018-1.14-2.018
							C389.538,261.54,389.197,262.122,389.197,263.558z"/>
					</g>
				</g>
				<g>
					<g>
						<path style="fill:#FFE1E1;" d="M357.067,272.542h-36.763v-36.763h36.763V272.542z M322.305,270.542h32.763v-32.763h-32.763
							V270.542z"/>
					</g>
					<g>
						<path style="fill:#F7B737;" d="M342.333,266.708V261.7h-1.158v-1.281h2.755v6.289H342.333z"/>
						<path style="fill:#F7B737;" d="M345.651,266.249l0.61-1.111c0.358,0.26,0.834,0.404,1.319,0.404
							c1.005,0,1.489-0.639,1.471-1.67c-0.296,0.422-0.798,0.674-1.498,0.674c-1.238,0-2.027-0.809-2.027-2.029
							c0-1.326,0.933-2.17,2.351-2.17c1.686,0,2.709,1.193,2.709,3.121c0,2.002-1.139,3.303-2.906,3.303
							C346.979,266.771,346.181,266.573,345.651,266.249z M348.882,262.499c0-0.467-0.296-0.879-0.942-0.879
							c-0.574,0-0.933,0.322-0.933,0.906c0,0.539,0.332,0.852,0.906,0.852C348.531,263.378,348.882,263.011,348.882,262.499z"/>
					</g>
				</g>
			</g>
			<g>
				<g>
					<g>
						<path style="fill:#FFE1E1;" d="M144.233,315.108h-36.763v-36.762h36.763V315.108z M109.471,313.108h32.763v-32.762h-32.763
							V313.108z"/>
					</g>
					<g>
						<path style="fill:#F7B737;" d="M133.455,304.565c0,0.682-0.503,1.391-1.185,2.09l-1.273,1.355h2.646v1.264h-4.701v-1.031
							l2.243-2.377c0.35-0.369,0.601-0.791,0.601-1.078c0-0.357-0.26-0.574-0.709-0.574c-0.511,0-1.14,0.307-1.714,0.799
							l-0.601-1.148c0.789-0.592,1.65-0.941,2.548-0.941C132.558,302.923,133.455,303.569,133.455,304.565z"/>
						<path style="fill:#F7B737;" d="M135.617,309.274v-5.006h-1.157v-1.283h2.754v6.289H135.617z"/>
					</g>
				</g>
				<g>
					<g>
						<path style="fill:#FFE1E1;" d="M186.8,315.108h-36.763v-36.762H186.8V315.108z M152.037,313.108H184.8v-32.762h-32.763
							V313.108z"/>
					</g>
					<g>
						<path style="fill:#F7B737;" d="M174.335,304.565c0,0.682-0.502,1.391-1.184,2.09l-1.274,1.355h2.646v1.264h-4.701v-1.031
							l2.243-2.377c0.35-0.369,0.602-0.791,0.602-1.078c0-0.357-0.261-0.574-0.709-0.574c-0.512,0-1.14,0.307-1.714,0.799
							l-0.602-1.148c0.79-0.592,1.651-0.941,2.549-0.941C173.438,302.923,174.335,303.569,174.335,304.565z"/>
						<path style="fill:#F7B737;" d="M180.167,304.565c0,0.682-0.503,1.391-1.185,2.09l-1.273,1.355h2.646v1.264h-4.701v-1.031
							l2.243-2.377c0.35-0.369,0.601-0.791,0.601-1.078c0-0.357-0.26-0.574-0.709-0.574c-0.511,0-1.14,0.307-1.714,0.799
							l-0.601-1.148c0.789-0.592,1.65-0.941,2.548-0.941C179.27,302.923,180.167,303.569,180.167,304.565z"/>
					</g>
				</g>
				<g>
					<g>
						<path style="fill:#FFE1E1;" d="M229.366,315.108h-36.763v-36.762h36.763V315.108z M194.604,313.108h32.763v-32.762h-32.763
							V313.108z"/>
					</g>
					<g>
						<path style="fill:#F7B737;" d="M217.279,304.565c0,0.682-0.503,1.391-1.185,2.09l-1.273,1.355h2.646v1.264h-4.701v-1.031
							l2.243-2.377c0.35-0.369,0.601-0.791,0.601-1.078c0-0.357-0.26-0.574-0.709-0.574c-0.511,0-1.14,0.307-1.714,0.799
							l-0.601-1.148c0.789-0.592,1.65-0.941,2.548-0.941C216.382,302.923,217.279,303.569,217.279,304.565z"/>
						<path style="fill:#F7B737;" d="M221.388,305.587c0.916,0.145,1.561,0.744,1.561,1.715c0,1.201-0.942,2.045-2.404,2.045
							c-0.861,0-1.768-0.305-2.342-0.762l0.645-1.213c0.467,0.504,1.005,0.764,1.57,0.764c0.628,0,0.969-0.305,0.969-0.816
							c0-0.529-0.35-0.789-0.977-0.789h-1.005v-0.854l1.399-1.453h-2.288v-1.221h4.145v0.906l-1.57,1.633L221.388,305.587z"/>
					</g>
				</g>
				<g>
					<g>
						<path style="fill:#FFE1E1;" d="M271.934,315.108h-36.763v-36.762h36.763V315.108z M237.171,313.108h32.763v-32.762h-32.763
							V313.108z"/>
					</g>
					<g>
						<path style="fill:#F7B737;" d="M259.173,304.565c0,0.682-0.502,1.391-1.185,2.09l-1.273,1.355h2.647v1.264h-4.701v-1.031
							l2.243-2.377c0.35-0.369,0.601-0.791,0.601-1.078c0-0.357-0.26-0.574-0.708-0.574c-0.512,0-1.14,0.307-1.714,0.799
							l-0.602-1.148c0.79-0.592,1.651-0.941,2.548-0.941C258.275,302.923,259.173,303.569,259.173,304.565z"/>
						<path style="fill:#F7B737;" d="M263.336,306.683v-1.346h1.48v1.346h0.852v1.211h-0.852v1.381h-1.48v-1.381h-2.979v-1.068
							l1.983-3.83h1.534l-1.866,3.688H263.336z"/>
					</g>
				</g>
				<g>
					<g>
						<path style="fill:#FFE1E1;" d="M314.501,315.108h-36.764v-36.762h36.764V315.108z M279.737,313.108h32.764v-32.762h-32.764
							V313.108z"/>
					</g>
					<g>
						<path style="fill:#F7B737;" d="M302.08,304.565c0,0.682-0.502,1.391-1.185,2.09l-1.273,1.355h2.646v1.264h-4.701v-1.031
							l2.243-2.377c0.35-0.369,0.601-0.791,0.601-1.078c0-0.357-0.26-0.574-0.709-0.574c-0.511,0-1.139,0.307-1.713,0.799
							l-0.602-1.148c0.79-0.592,1.651-0.941,2.548-0.941C301.183,302.923,302.08,303.569,302.08,304.565z"/>
						<path style="fill:#F7B737;" d="M305.131,304.259v1.014h0.565c1.436,0,2.378,0.771,2.378,1.895c0,1.318-0.987,2.17-2.504,2.17
							c-0.825,0-1.768-0.313-2.422-0.779l0.637-1.211c0.467,0.502,1.032,0.771,1.597,0.771c0.619,0,0.979-0.307,0.979-0.844
							c0-0.494-0.359-0.781-0.979-0.781c-0.322,0-1.318,0.018-1.704,0.045v-3.543h4.118v1.264H305.131z"/>
					</g>
				</g>
				<g>
					<g>
						<path style="fill:#FFE1E1;" d="M399.634,315.108h-36.763v-36.762h36.763V315.108z M364.871,313.108h32.763v-32.762h-32.763
							V313.108z"/>
					</g>
					<g>
						<path style="fill:#F7B737;" d="M387.223,304.565c0,0.682-0.502,1.391-1.185,2.09l-1.273,1.355h2.647v1.264h-4.701v-1.031
							l2.243-2.377c0.35-0.369,0.601-0.791,0.601-1.078c0-0.357-0.26-0.574-0.709-0.574c-0.511,0-1.139,0.307-1.713,0.799
							l-0.602-1.148c0.79-0.592,1.651-0.941,2.548-0.941C386.325,302.923,387.223,303.569,387.223,304.565z"/>
						<path style="fill:#F7B737;" d="M391.036,309.274h-1.687l2.243-5.016h-1.732v0.881h-1.4v-2.145h4.89v1.084L391.036,309.274z"/>
					</g>
				</g>
				<g>
					<g>
						<path style="fill:#FFE1E1;" d="M357.067,315.108h-36.763v-36.762h36.763V315.108z M322.305,313.108h32.763v-32.762h-32.763
							V313.108z"/>
					</g>
					<g>
						<path style="fill:#F7B737;" d="M344.315,304.565c0,0.682-0.502,1.391-1.185,2.09l-1.273,1.355h2.647v1.264h-4.701v-1.031
							l2.243-2.377c0.35-0.369,0.601-0.791,0.601-1.078c0-0.357-0.26-0.574-0.708-0.574c-0.512,0-1.14,0.307-1.714,0.799
							l-0.602-1.148c0.79-0.592,1.651-0.941,2.548-0.941C343.418,302.923,344.315,303.569,344.315,304.565z"/>
						<path style="fill:#F7B737;" d="M350.56,303.442l-0.61,1.113c-0.358-0.26-0.834-0.404-1.318-0.404
							c-1.006,0-1.49,0.637-1.472,1.67c0.296-0.422,0.798-0.674,1.498-0.674c1.238,0,2.027,0.809,2.027,2.027
							c0,1.328-0.933,2.172-2.35,2.172c-1.687,0-2.709-1.193-2.709-3.123c0-2,1.139-3.301,2.906-3.301
							C349.232,302.923,350.031,303.12,350.56,303.442z M347.33,307.192c0,0.467,0.296,0.881,0.942,0.881
							c0.574,0,0.934-0.324,0.934-0.906c0-0.539-0.332-0.853-0.906-0.853C347.681,306.314,347.33,306.683,347.33,307.192z"/>
					</g>
				</g>
			</g>
			<g>
				<g>
					<g>
						<path style="fill:#FFE1E1;" d="M144.233,357.675h-36.763v-36.762h36.763V357.675z M109.471,355.675h32.763v-32.762h-32.763
							V355.675z"/>
					</g>
					<g>
						<path style="fill:#F7B737;" d="M131.392,347.132c0,0.682-0.503,1.391-1.185,2.09l-1.273,1.355h2.646v1.264h-4.701v-1.031
							l2.243-2.377c0.35-0.369,0.601-0.791,0.601-1.078c0-0.357-0.26-0.574-0.709-0.574c-0.511,0-1.14,0.307-1.714,0.799
							l-0.601-1.148c0.789-0.592,1.65-0.941,2.548-0.941C130.494,345.489,131.392,346.136,131.392,347.132z"/>
						<path style="fill:#F7B737;" d="M137.456,347.175c0,0.549-0.296,1.033-0.789,1.303c0.69,0.287,1.121,0.887,1.121,1.588
							c0,1.129-1.005,1.848-2.575,1.848c-1.569,0-2.574-0.709-2.574-1.822c0-0.717,0.466-1.326,1.193-1.613
							c-0.529-0.297-0.871-0.799-0.871-1.346c0-1.006,0.88-1.643,2.243-1.643C136.586,345.489,137.456,346.144,137.456,347.175z
							 M134.145,349.931c0,0.529,0.377,0.824,1.067,0.824c0.691,0,1.077-0.287,1.077-0.824c0-0.521-0.386-0.816-1.077-0.816
							C134.522,349.114,134.145,349.409,134.145,349.931z M134.308,347.265c0,0.449,0.322,0.701,0.905,0.701
							c0.584,0,0.906-0.252,0.906-0.701c0-0.465-0.322-0.727-0.906-0.727C134.63,346.538,134.308,346.8,134.308,347.265z"/>
					</g>
				</g>
				<g>
					<g>
						<path style="fill:#FFE1E1;" d="M186.8,357.675h-36.763v-36.762H186.8V357.675z M152.037,355.675H184.8v-32.762h-32.763
							V355.675z"/>
					</g>
					<g>
						<path style="fill:#F7B737;" d="M174.048,347.132c0,0.682-0.502,1.391-1.184,2.09l-1.274,1.355h2.646v1.264h-4.701v-1.031
							l2.243-2.377c0.35-0.369,0.602-0.791,0.602-1.078c0-0.357-0.261-0.574-0.709-0.574c-0.512,0-1.14,0.307-1.714,0.799
							l-0.602-1.148c0.79-0.592,1.651-0.941,2.549-0.941C173.151,345.489,174.048,346.136,174.048,347.132z"/>
						<path style="fill:#F7B737;" d="M175.385,351.384l0.61-1.113c0.358,0.262,0.834,0.404,1.318,0.404
							c1.005,0,1.489-0.637,1.472-1.668c-0.296,0.422-0.799,0.672-1.498,0.672c-1.238,0-2.028-0.807-2.028-2.027
							c0-1.328,0.934-2.172,2.352-2.172c1.686,0,2.709,1.193,2.709,3.123c0,2-1.14,3.301-2.907,3.301
							C176.713,351.903,175.914,351.706,175.385,351.384z M178.615,347.634c0-0.467-0.297-0.879-0.942-0.879
							c-0.574,0-0.934,0.322-0.934,0.906c0,0.537,0.332,0.852,0.906,0.852C178.265,348.513,178.615,348.146,178.615,347.634z"/>
					</g>
				</g>
				<g>
					<g>
						<path style="fill:#FFE1E1;" d="M229.366,357.675h-36.763v-36.762h36.763V357.675z M194.604,355.675h32.763v-32.762h-32.763
							V355.675z"/>
					</g>
					<g>
						<path style="fill:#F7B737;" d="M214.632,348.153c0.916,0.145,1.562,0.744,1.562,1.715c0,1.201-0.942,2.045-2.404,2.045
							c-0.861,0-1.768-0.305-2.342-0.762l0.645-1.213c0.467,0.504,1.005,0.764,1.57,0.764c0.628,0,0.969-0.305,0.969-0.816
							c0-0.529-0.35-0.789-0.977-0.789h-1.005v-0.854l1.399-1.453h-2.288v-1.221h4.146v0.906l-1.57,1.633L214.632,348.153z"/>
						<path style="fill:#F7B737;" d="M222.851,348.692c0,2.055-0.996,3.193-2.773,3.193c-1.794,0-2.79-1.139-2.79-3.193
							c0-2.047,0.996-3.186,2.79-3.186C221.854,345.507,222.851,346.646,222.851,348.692z M218.93,348.692
							c0,1.435,0.341,2.027,1.148,2.027c0.79,0,1.14-0.592,1.14-2.027c0-1.436-0.35-2.02-1.14-2.02
							C219.27,346.673,218.93,347.257,218.93,348.692z"/>
					</g>
				</g>
			</g>
		</g>
	</g>
	<g>
		<g>
			<g>
				<path style="fill:#FEC6C0;" d="M218.183,223.946c0,0,2.459-2.95,2.529-3.723c0.07-0.772-0.843-6.181-0.281-6.462
					c0.562-0.281,1.405,2.528,1.967,2.528c0.562,0,3.723-5.268,4.566-4.987c0.843,0.281-1.616,4.496-1.616,4.987
					c0,0.492,3.723,1.616,3.863,3.934c0.141,2.318-4.355,4.495-4.355,4.495l-2.037,3.232L218.183,223.946z"/>
				<g>
					<path style="fill:#F7B737;" d="M175.204,258.366c0,0,16.968-1.704,22.025-6.437c5.057-4.734,20.912-28.951,20.912-28.951
						l5.695,3.857c0,0-14.384,31.318-20.917,36.797c-6.533,5.479-15.5,9.469-22.7,10.325c0,0,3.569,3.854,2.768,9.693
						c-0.538,3.925-4.045,24.655,0.778,35.824c0,0-23.769-4.004-34.549,2.95c0,0,5.918-17.359,2.943-29.12l0.015-34.94H175.204z"/>
					<g>
						<path style="fill:#222270;" d="M182.523,222.979c0,0,1.132-15.012-15.725-14.028
							C166.797,208.951,177.44,219.974,182.523,222.979z"/>
						<path style="fill:#FEC6C0;" d="M178.755,218.397c0,0,3.71,2.248,4.806,7.727c1.095,5.479,3.529,6.743,3.857,8.008
							c0.328,1.264-1.595,1.884-1.687,2.908c-0.092,1.025-1.216,8.331-4.307,10.719c-3.09,2.389-9.833,2.108-9.833,2.108
							s-14.751-17.421-6.603-27.395C173.135,212.497,178.755,218.397,178.755,218.397z"/>
						<path style="fill:#FEC6C0;" d="M173.216,248.562c0,0,0.613,8.103,1.987,9.804h-7.406v-12.875L173.216,248.562z"/>
						<path style="fill:#222270;" d="M178.755,218.397c0,0-2.528,11.697-4.495,13.786c0,0-3.653-2.912-4.776-0.061
							c-1.124,2.852,2.248,5.438,4.636,3.231c0,0-0.281,10.298-2.529,14.513c0,0,1.124,7.734,0.281,18.197
							c-0.843,10.462-2.248,29.007-22.618,27.742c-20.371-1.266-15.453-21.939-11.941-33.096c3.512-11.158,3.856-22.059,6.04-32.09
							c2.529-11.611,8.116-21.669,22.478-21.669C175.524,208.951,178.333,216.992,178.755,218.397z"/>
					</g>
					<g>
						<g>
							<g>
								<path style="fill:#373741;" d="M148.979,443.542c0,0-0.877,4.892,0.915,6.48c3.223,2.84,5.837,1.828,11.85-1.026
									c11.169-5.303,7.86-12.147,0-9.859L148.979,443.542z"/>
								<path style="fill:#F9AF95;" d="M161.744,345.946c0,0-3.828,95.206-3.828,97.175c0,1.97-8.937,2.326-8.937,0.421
									s-4.176-84.21-4.744-95.019L161.744,345.946z"/>
							</g>
							<g>
								<path style="fill:#373741;" d="M168.08,443.542c0,0-0.877,4.892,0.916,6.48c3.223,2.84,5.837,1.828,11.85-1.026
									c11.169-5.303,7.861-12.147,0-9.859L168.08,443.542z"/>
								<path style="fill:#F9AF95;" d="M180.845,345.946c0,0-3.827,94.308-3.827,97.175c0,2.867-8.938,2.63-8.938,0.421
									c0-2.209-4.176-84.21-4.743-95.019L180.845,345.946z"/>
							</g>
							<path style="fill:#5089F9;" d="M152.602,307.114c0,0-3.23,6.385-5.05,11.052c-4.437,11.363-4.439,15.531-4.83,27.78
								c-0.36,11.036,1.39,38.758,2.359,51.156c0.965,12.403,3.024,44.292,3.024,44.292s5.925,2.299,10.502-1.61
								c0,0,2.338-93.494,3.739-95.104c1.399-1.612,5.208,95.426,5.208,95.426s6.838,1.288,10.542-0.484
								c0,0,6.65-73.169,6.492-85.247c-0.163-12.083,2.827-29.975-3.21-47.075C181.379,307.3,163.333,316.042,152.602,307.114z"/>
						</g>
					</g>
				</g>
				<path style="fill:#222270;" d="M152.882,304.098c0,0,10.577,6.247,28.375,0l0.123,3.202c0,0-17.6,9.453-28.777-0.186
					L152.882,304.098z"/>
			</g>
			<path style="opacity:0.2;fill:#1F457C;" d="M156.487,295.306l-3.838,0.518c0.528,3.614,0.391,7.563-0.048,11.292
				c-0.003,0.006-3.23,6.386-5.049,11.051c-4.437,11.363-4.439,15.531-4.83,27.78c-0.36,11.036,1.39,38.758,2.359,51.156
				c0.965,12.403,3.024,44.292,3.024,44.292s0.301,0.113,0.798,0.245c0.049,1.089,0.075,1.751,0.075,1.902
				c0,0-0.877,4.892,0.915,6.48c1.499,1.321,2.87,1.8,4.509,1.656c-0.246-0.383-1.73-4.559-3.313-19.12
				c-1.666-15.333-4.815-86.591-3.193-98.789C149.519,321.571,156.216,315.053,156.487,295.306z"/>
		</g>
		<path style="opacity:0.2;fill:#1F457C;" d="M168.933,374.59c-1.331-20.789-5.526-28.284-6.416-29.66
			c1.514,5.387,5.038,95.177,5.038,95.177s0.145,0.026,0.386,0.065c0.089,1.94,0.139,3.13,0.139,3.37c0,0-0.877,4.892,0.916,6.48
			c0.922,0.813,1.796,1.301,2.712,1.529C170.128,441.376,170.321,396.278,168.933,374.59z"/>
	</g>
	<g>
		<g>
			<path style="fill:#E3D2F9;" d="M412.371,160.648c0,2.719-2.205,4.924-4.924,4.924H299.41c-2.72,0-4.923-2.205-4.923-4.924l0,0
				c0-2.719,2.203-4.923,4.923-4.923h108.037C410.166,155.725,412.371,157.929,412.371,160.648L412.371,160.648z"/>
			<g>
				<g>
					<rect x="308.355" y="158.352" style="fill:#C3A1F7;" width="95.311" height="1.054"/>
					<rect x="308.355" y="161.867" style="fill:#C3A1F7;" width="64.386" height="1.054"/>
				</g>
				<g>
					<g>
						<path style="fill:#C3A1F7;" d="M301.956,164.033c-1.866,0-3.385-1.518-3.385-3.385c0-1.866,1.518-3.385,3.385-3.385
							c1.867,0,3.385,1.518,3.385,3.385C305.341,162.515,303.823,164.033,301.956,164.033z M301.956,158.187
							c-1.357,0-2.462,1.104-2.462,2.461c0,1.357,1.105,2.462,2.462,2.462c1.357,0,2.462-1.104,2.462-2.462
							C304.418,159.29,303.314,158.187,301.956,158.187z"/>
					</g>
					<g>
						<polygon style="fill:#C3A1F7;" points="302.043,161.544 300.407,160.571 300.878,159.778 301.87,160.367 303.038,159.093 
							303.719,159.717 						"/>
					</g>
				</g>
			</g>
		</g>
		<g>
			<path style="fill:#E3D2F9;" d="M283.663,288.383c0,2.719-2.205,4.923-4.924,4.923h-64.958c-2.72,0-4.923-2.204-4.923-4.923l0,0
				c0-2.72,2.203-4.924,4.923-4.924h64.958C281.458,283.459,283.663,285.663,283.663,288.383L283.663,288.383z"/>
			<g>
				<g>
					<rect x="222.727" y="286.087" style="fill:#C3A1F7;" width="52.231" height="1.053"/>
					<rect x="222.727" y="289.602" style="fill:#C3A1F7;" width="21.306" height="1.053"/>
				</g>
				<g>
					<g>
						<path style="fill:#C3A1F7;" d="M216.327,291.768c-1.867,0-3.385-1.519-3.385-3.385c0-1.867,1.518-3.386,3.385-3.386
							c1.867,0,3.385,1.518,3.385,3.386C219.712,290.249,218.194,291.768,216.327,291.768z M216.327,285.921
							c-1.357,0-2.462,1.104-2.462,2.462c0,1.357,1.105,2.461,2.462,2.461c1.357,0,2.462-1.104,2.462-2.461
							C218.789,287.024,217.684,285.921,216.327,285.921z"/>
					</g>
					<g>
						<polygon style="fill:#C3A1F7;" points="216.414,289.277 214.778,288.306 215.249,287.512 216.241,288.101 217.409,286.827 
							218.089,287.452 						"/>
					</g>
				</g>
			</g>
		</g>
	</g>
	<g>
		<g>
			<g>
				<g>
					<circle style="fill:#FFFFFF;" cx="170.175" cy="158.85" r="2.625"/>
				</g>
				<rect x="175.906" y="158.035" style="fill:#FFFFFF;" width="21.602" height="1.63"/>
			</g>
			<g>
				<g>
					<circle style="fill:#FFFFFF;" cx="170.175" cy="168.85" r="2.625"/>
				</g>
				<rect x="175.906" y="168.035" style="fill:#FFFFFF;" width="21.602" height="1.63"/>
			</g>
			<g>
				<g>
					<circle style="fill:#FFFFFF;" cx="170.175" cy="178.85" r="2.625"/>
				</g>
				<rect x="175.906" y="178.035" style="fill:#FFFFFF;" width="11.352" height="1.63"/>
			</g>
		</g>
		<g>
			<g>
				<g>
					<circle style="fill:#FFFFFF;" cx="298.019" cy="242.929" r="2.625"/>
				</g>
				<rect x="303.75" y="242.114" style="fill:#FFFFFF;" width="21.602" height="1.63"/>
			</g>
			<g>
				<g>
					<path style="fill:#FFFFFF;" d="M300.644,252.93c0,1.449-1.176,2.625-2.625,2.625c-1.449,0-2.625-1.176-2.625-2.625
						s1.176-2.626,2.625-2.626C299.468,250.304,300.644,251.48,300.644,252.93z"/>
				</g>
				<rect x="303.75" y="252.114" style="fill:#FFFFFF;" width="21.602" height="1.63"/>
			</g>
		</g>
	</g>
	<g>
		<g>
			<g>
				<g>
					<path style="fill:#FFCACA;" d="M424.483,126.371h-65.62V60.747h65.62V126.371z"/>
				</g>
				<path style="fill:#F88988;" d="M419.632,86.562c0-8.746-7.091-15.837-15.837-15.837c-4.867,0-9.217,2.2-12.122,5.654
					c-2.904-3.454-7.254-5.654-12.121-5.654c-8.746,0-15.837,7.091-15.837,15.837c0,5.41,2.717,10.181,6.855,13.037l-0.004,0.002
					l21.107,16.791h0.001l21.107-16.791l-0.004-0.002C416.915,96.743,419.632,91.972,419.632,86.562z"/>
				<path style="fill:#FFFFFF;" d="M435.425,89.684c-7.204,0-14.408,0-21.613,0c-1.611,0-3.224,0-4.836,0
					c-0.18,0-0.329,0.001-0.464,0.002c-1.655-2.886-3.313-5.771-4.968-8.657c-0.876-1.526-2.861-0.986-3.427,0.447
					c-2.694,6.833-5.389,13.665-8.082,20.497c-2.101-7.999-4.201-15.998-6.303-23.997c-0.425-1.617-2.58-1.79-3.427-0.447
					c-2.037,3.23-4.074,6.461-6.111,9.691c-0.509,0.808-1.019,1.615-1.527,2.423c-0.01,0.016-0.017,0.026-0.026,0.041
					c-0.766,0-1.532,0-2.298,0c-7.89,0-15.778,0-23.668,0c-2.418,0-2.418,3.75,0,3.75c8.303,0,16.605,0,24.907,0
					c2.839,0,3.478-0.558,5.001-2.974c1.542-2.444,3.083-4.89,4.625-7.334c2.219,8.448,4.437,16.897,6.657,25.347
					c0.51,1.941,2.976,1.623,3.615,0c2.918-7.398,5.835-14.797,8.752-22.195c1.191,2.076,2.382,4.151,3.573,6.228
					c0.328,0.571,0.963,0.929,1.619,0.929c9.333,0,18.667,0,28,0C437.843,93.434,437.843,89.684,435.425,89.684z M374.209,90.312
					C374.147,90.39,374.149,90.376,374.209,90.312L374.209,90.312z"/>
			</g>
		</g>
		<g>
			<g>
				<g>
					<g>
						<path style="fill:#FFCACA;" d="M130.302,223.878h-65.62v-65.624h65.62V223.878z"/>
					</g>
				</g>
			</g>
			<g>
				<g>
					<path style="fill:#FFFFFF;" d="M121.456,208.45c0,2.124-1.739,3.862-3.863,3.862H77.389c-2.122,0-3.861-1.738-3.861-3.862
						v-27.553c0-2.124,1.739-3.862,3.861-3.862h40.204c2.124,0,3.863,1.738,3.863,3.862V208.45z"/>
					<g>
						<path style="fill:#F88988;" d="M106.705,177.035h-2.575c0-3.661-2.978-6.639-6.638-6.639c-3.662,0-6.64,2.978-6.64,6.639
							h-2.575c0-5.081,4.133-9.214,9.215-9.214C102.572,167.821,106.705,171.954,106.705,177.035z"/>
					</g>
				</g>
				<g>
					<path style="fill:#F7B737;" d="M110.43,195.2c0,7.145-5.792,12.938-12.937,12.938c-7.146,0-12.94-5.793-12.94-12.938
						c0-7.146,5.794-12.938,12.94-12.938C104.638,182.262,110.43,188.053,110.43,195.2z"/>
					<polygon style="fill:#FFFFFF;" points="104.015,193.061 99.63,193.061 99.63,188.676 95.353,188.676 95.353,193.061 
						90.97,193.061 90.97,197.337 95.353,197.337 95.353,201.722 99.63,201.722 99.63,197.337 104.015,197.337 					"/>
				</g>
			</g>
		</g>
		<g>
			<g>
				<g>
					<g>
						<g>
							<path style="fill:#FFCACA;" d="M319.802,389.487h-65.62v-65.625h65.62V389.487z"/>
						</g>
					</g>
				</g>
			</g>
			<g>
				<g>
					<g>
						<path style="fill:#F88988;" d="M282.965,351.824l8.904-6.759c2.733-2.066,3.258-5.957,1.193-8.688
							c-2.071-2.73-5.971-3.262-8.693-1.195l-8.905,6.759L282.965,351.824z"/>
						<path style="fill:#FFFFFF;" d="M275.464,341.94l-8.903,6.754c-2.734,2.074-3.267,5.964-1.188,8.694
							c2.064,2.73,5.955,3.264,8.69,1.19l8.902-6.755L275.464,341.94z"/>
					</g>
				</g>
				<g>
					<g>
						<path style="fill:#F88988;" d="M289.627,360.461l-4.846,10.074c-1.49,3.085-0.185,6.786,2.898,8.278
							c3.086,1.484,6.801,0.182,8.282-2.899l4.847-10.073L289.627,360.461z"/>
						<path style="fill:#FFFFFF;" d="M300.809,365.841l4.847-10.069c1.488-3.093,0.19-6.798-2.905-8.28
							c-3.081-1.491-6.789-0.19-8.277,2.9l-4.846,10.069L300.809,365.841z"/>
					</g>
				</g>
			</g>
		</g>
	</g>
</g>
</svg>
