<svg width="824" height="715" viewBox="0 0 824 715" fill="none" xmlns="http://www.w3.org/2000/svg">
<path opacity="0.12" d="M785.131 568.647H115.527C94.3473 568.647 77.018 579.708 77.018 593.226C77.018 602.587 85.3305 610.766 97.4736 614.914H38.5094C17.3293 614.914 0 625.974 0 639.492C0 653.011 17.3293 664.071 38.5094 664.071H59.0557C53.3174 668.366 49.8358 673.922 49.8358 679.975V689.806C49.8358 703.325 67.1651 714.385 88.3452 714.385H747.982C769.163 714.385 786.492 703.325 786.492 689.806V679.975C786.492 666.456 769.163 655.396 747.982 655.396L703.131 655.942C706.548 655.942 712.095 654.222 715.816 650.764C722.342 644.7 722.631 635.47 719.441 627.831C717.373 622.878 714.06 618.95 705.85 617.473L785.133 617.805C806.313 617.805 823.642 606.745 823.642 593.226C823.64 579.708 806.311 568.647 785.131 568.647Z" fill="#606060"/>
<path d="M547.621 273.336L560.181 264.299L556.749 258.476L546.847 262.658L546.437 259.11L536.583 268.223L539.376 274.784L547.621 273.336Z" fill="#EBCEB1"/>
<path d="M538.937 263.959C538.937 263.959 543.846 277.276 543.847 277.277C544.52 279.462 496.943 307.753 492.706 309.783C483.379 314.255 466.466 324.806 466.466 324.806C453.494 324.976 429.068 317.979 420.909 314.281C417.623 312.792 415.281 305.125 413.287 302.076C410.758 298.209 413.978 291.393 416.146 288.24C420.592 281.771 427.416 277.167 434.853 275.618C437.525 275.061 440.324 274.892 442.947 275.661C445.651 276.454 449.109 263.336 451.404 265.039C455.479 268.065 457.737 288.034 462.589 289.774C468.682 291.959 537.498 260.825 538.937 263.959Z" fill="#8C9498"/>
<path d="M438.994 204.375C438.713 204.385 438.433 204.397 438.154 204.411C424.808 205.096 408.646 223.552 399.284 234.446C375.117 262.565 358.237 294.788 345.604 330.815C338.801 350.213 332.795 369.929 327.166 389.755C325.611 395.232 314.687 445.325 312.038 445.681C339.204 442.026 366.553 439.169 393.611 441.146C420.668 443.123 447.576 450.113 470.774 465.145C482.652 400.858 491.433 334.287 494.31 269.144C494.654 261.352 495.781 253.314 495.085 245.571C494.283 236.652 490.11 232.634 485.375 225.863C483.752 223.543 482.117 221.208 480.133 219.29C469.674 209.181 452.976 203.896 438.994 204.375Z" fill="#8C9498"/>
<path d="M346.309 421.297L374.579 542.169L375.211 631.263L388.937 634.39L394.301 551.53L407.775 399.785L346.309 421.297Z" fill="#EBCEB1"/>
<path d="M389.11 636.887L391.328 645.924L389.382 663.653L378.258 663.675L374.093 638.046L375.384 633.761L389.11 636.887Z" fill="#514943"/>
<path d="M454.246 407.947L456.74 512.391L443.505 659.904L429.955 660.95L425.087 525.716L397.491 403.118L454.246 407.947Z" fill="#EBCEB1"/>
<path d="M443.081 657.44L461.334 667.649L459.885 676.63L427.642 672.469L429.192 659.545L443.081 657.44Z" fill="#514943"/>
<path d="M458.219 421.423L467.403 542.093L458.059 624.849L421.353 622.659L414.812 528.572L398.938 425.996L401.405 410.026L454.305 410.843L458.219 421.423Z" fill="#9E6652"/>
<path d="M402.57 533.312L398.257 619.866L366.352 618.143L367.002 536.057L346.884 432.972L351.474 404.157L405.133 407.676L402.57 533.312Z" fill="#9E6652"/>
<path d="M464.877 431.381C432.14 425.432 379.095 411.021 346.357 405.071C363.49 345.152 390.758 278.59 422.55 225.957C428.316 216.411 435.521 206.451 445.84 204.186C456.896 201.759 476.279 209.436 478.426 222.463C481.568 241.521 475.047 267.805 473.035 287.075C468.48 330.678 472.792 388.304 464.877 431.381Z" fill="#FFFFF0"/>
<path d="M459.191 162.137C471.502 139.567 498.78 154.227 500.548 176.801C501.713 191.67 487.991 208.042 473.807 209.197C473.518 212.773 473.086 216.335 472.508 219.872C468.923 218.841 465.337 217.81 461.751 216.779C460.642 216.46 459.37 215.987 459.01 214.836C458.793 214.139 458.985 213.381 459.177 212.676C459.826 210.298 460.473 207.92 461.122 205.542C460.881 205.365 460.641 205.183 460.403 204.992C454.498 200.248 451.815 191.981 452.155 184.167C452.495 176.352 455.492 168.92 459.191 162.137Z" fill="#EACDB0"/>
<path d="M459.98 169.774C454.033 175.785 453.483 185.405 453.091 193.671C452.743 201.002 451.708 205.379 444.323 203.313C440.163 202.149 432.738 200.165 430.978 195.363C429.647 191.727 434.535 185.488 437.126 183.371C439.105 181.754 442.069 182.019 444.006 180.347C444.804 179.658 445.348 178.701 445.842 177.746C447.857 173.846 449.309 169.622 450.132 165.266C450.691 162.308 450.971 159.254 452.082 156.475C453.694 152.446 458.527 149.388 461.658 146.6C467.482 141.413 480.706 137.457 485.494 146.721C486.585 148.83 486.567 151.363 486.413 153.76C486.321 155.191 486.18 156.659 485.56 157.935C483.088 163.027 478.276 161.448 474.044 162.177C468.824 163.074 463.775 165.938 459.98 169.774Z" fill="#514943"/>
<path d="M494.257 190.302C492.741 194.037 488.966 197.031 489.332 201.073C489.494 202.875 490.49 204.452 491.166 206.115C493.014 210.658 492.368 216.223 489.535 220.162C496.483 223.663 503.431 227.163 510.379 230.664C511.427 231.192 512.532 231.732 513.692 231.659C516.17 231.501 517.659 228.776 518.691 226.398C520.724 221.715 522.808 216.649 521.901 211.59C521.481 209.243 520.433 207.061 520.02 204.714C518.034 193.423 530.879 182.657 526.945 171.948C525.189 167.17 520.594 164.34 517.484 160.4C512.061 153.531 511.289 143.433 505.455 136.949C494.436 124.704 472.82 134.73 474.479 151.737C475.832 165.606 500.361 175.262 494.257 190.302Z" fill="#514943"/>
<path d="M439.311 206.458C439.311 206.458 382.694 350.286 395.198 386.973C407.702 423.66 413.519 437.872 413.519 437.872L326.825 441.689C326.825 441.689 382.161 231.569 439.311 206.458Z" fill="#8C9498"/>
<path d="M469.239 36.6807H235.03V365.924H469.239V36.6807Z" fill="#755635"/>
<path opacity="0.26" d="M252.503 351.779H256.008L462.838 358.538L457.427 47.166L447.813 50.0793L252.503 351.779Z" fill="black"/>
<path d="M457.426 47.166H246.842V351.779H457.426V47.166Z" fill="#FFFFF1"/>
<path d="M379.117 18.2H377.698V17.1926C377.698 7.69706 369.306 0 358.953 0H345.317C334.963 0 326.571 7.6978 326.571 17.1926V18.2H325.151C314.798 18.2 306.405 25.8978 306.405 35.3926V54.6007H397.864V35.3926C397.864 25.8978 389.471 18.2 379.117 18.2ZM364.183 18.5956H340.087C337.623 18.5956 335.608 16.4728 335.608 13.8779C335.608 11.2831 337.623 9.16029 340.087 9.16029H364.183C366.646 9.16029 368.661 11.2831 368.661 13.8779C368.661 16.4728 366.645 18.5956 364.183 18.5956Z" fill="#C4D3D3"/>
<path opacity="0.12" d="M397.864 45.5571H306.406V54.6012H397.864V45.5571Z" fill="black"/>
<path d="M432.539 158.49H274.288V162.974H432.539V158.49Z" fill="#CDCED0"/>
<path d="M432.539 191.55H274.288V196.035H432.539V191.55Z" fill="#CDCED0"/>
<path d="M432.539 224.611H274.288V229.095H432.539V224.611Z" fill="#CDCED0"/>
<path d="M432.539 257.67H274.288V262.154H432.539V257.67Z" fill="#CDCED0"/>
<path d="M332.321 324.711H274.148V326.293H332.321V324.711Z" fill="#CDCED0"/>
<path d="M414.107 296.574C411.296 295.47 408.181 295.75 405.585 297.152C405.196 296.938 404.794 296.74 404.374 296.574C400.169 294.923 395.284 296.363 392.473 300.035C389.727 303.622 389.363 308.762 391.596 312.731C393.863 316.76 398.355 318.841 402.707 317.999C403.744 317.798 404.714 317.434 405.605 316.939C407.672 318.05 410.077 318.457 412.441 317.999C417.443 317.03 420.934 312.306 421.035 307.044C420.946 302.394 418.281 298.214 414.107 296.574ZM403.737 315.835C400.271 317.149 396.308 316.039 393.926 313.077C391.509 310.07 391.171 305.652 393.079 302.269C394.979 298.902 398.79 297.1 402.442 297.871C402.937 297.975 403.414 298.124 403.87 298.308C403.262 298.812 402.701 299.388 402.206 300.034C399.46 303.621 399.096 308.761 401.329 312.73C402.002 313.926 402.871 314.948 403.874 315.775C403.828 315.794 403.784 315.817 403.737 315.835ZM409.584 307.044C409.523 310.207 408.034 313.145 405.588 314.855C404.876 314.369 404.223 313.777 403.66 313.076C401.243 310.069 400.905 305.651 402.814 302.269C403.512 301.031 404.47 300.007 405.583 299.242C407.996 300.943 409.523 303.852 409.584 307.044ZM413.471 315.835C411.444 316.603 409.248 316.537 407.297 315.762C409.727 313.68 411.236 310.477 411.302 307.044C411.236 303.598 409.752 300.413 407.291 298.326C408.823 297.707 410.515 297.521 412.176 297.871C416.342 298.749 419.232 302.626 419.317 307.044C419.242 310.941 416.999 314.497 413.471 315.835Z" fill="#CDCED0"/>
<path d="M258.742 261.904L264.447 256.24L264.543 248.958L266.017 248.195L266.982 250.07L268.704 244.05L272.739 241.226L278.762 243.642L282.215 249.642L279.303 255.688L272.889 260.089L265.399 268.199L258.742 261.904Z" fill="#EACDB0"/>
<path d="M260.546 253.018L228.603 292.9L186.897 250.341L180.41 301.219L231.181 327.734L271.136 264.636L260.546 253.018Z" fill="#8AAD9F"/>
<path d="M117.088 658.322L116.396 665.514L128.801 674.483L136.04 668.179L130.184 660.098L117.78 651.129L117.088 658.322Z" fill="#514943"/>
<path d="M117.398 438.419L115.297 460.263L133.899 535.312L116.627 655.911L129.341 660.527L162.867 542.785L168.188 508.533L167.993 436.021L117.398 438.419Z" fill="#CAB5A1"/>
<path d="M219.282 456.726L192.538 658.806H180.382L178.194 529.273L156.069 438.355L219.282 456.726Z" fill="#CAB5A1"/>
<path d="M180.452 657.209V664.468L193.598 671.726L200.171 664.468L193.598 657.209H180.452Z" fill="#514943"/>
<path d="M185.321 255.319C184.358 253.66 183.072 252.248 181.307 251.199C169.231 244.02 149.212 250.344 136.108 250.344C132.235 293.298 121.528 334.235 114.613 376.409C107.268 421.2 98.9991 465.823 89.8121 510.235C89.2921 512.75 126.283 511.482 129.772 511.544C165.359 512.176 211.944 512.047 246.283 500.712C224.368 438.735 216.367 372.05 199.11 308.461C196.08 297.297 192.482 286.301 189.754 275.047C188.172 268.523 188.416 260.649 185.321 255.319Z" fill="#8AAD9F"/>
<path d="M171.175 190.31C180.183 192.906 187.275 201.688 188.263 211.471C193.186 206.64 195.699 199.222 194.792 192.199C193.886 185.177 189.584 178.735 183.615 175.463C178.03 178.585 173.699 184.11 171.846 190.478L171.175 190.31Z" fill="#9E6652"/>
<path d="M187.498 204.652C182.843 178.765 152.14 183.237 143.332 204.201C138.324 216.123 143.571 232.998 153.59 241.293C153.805 243.585 154.088 249.908 155.75 251.44C157.551 253.1 163.226 251.518 165.45 250.976C166.066 250.826 166.711 250.64 167.158 250.168C167.718 249.577 167.811 247.995 167.822 246.242C169.455 246.125 171.127 245.79 172.828 245.201C179.97 242.732 185.142 235.767 187.281 228.176C189.419 220.586 188.896 212.432 187.498 204.652Z" fill="#EACDB0"/>
<path d="M155.63 347.407L163.796 350.223L170.5 346.502L171.97 347.598L170.762 349.559L177.165 348.148L181.861 350.759L182.81 358.133L179.138 364.778L172.088 364.996L164.704 360.8L153.368 357.456L155.63 347.407Z" fill="#EACDB0"/>
<path d="M134.064 338.119C130.622 335.668 128.255 332.185 127.948 327.052C127.666 322.323 128.718 317.637 129.492 312.97C131.951 298.154 131.627 282.831 128.542 268.145C125.473 253.532 109.29 271.906 107.278 278.498C105.047 285.805 105.675 293.762 105.131 301.316C104.401 311.459 104.056 321.634 104.096 331.807C104.121 338.243 102.617 353.446 109.049 357.128C110.788 358.124 112.785 358.473 114.739 358.807C117.809 359.332 154.463 364.201 155.037 362.294C155.038 362.29 160.1 345.467 160.1 345.467C152.475 343.821 141.052 343.096 134.064 338.119Z" fill="#8AAD9F"/>
<path d="M142.102 307.412C142.394 307.394 142.631 307.371 142.804 307.339C148.22 306.36 156.911 304.518 159.426 298.506C162.002 292.347 157.424 281.172 156.669 274.772C155.521 265.043 155.139 255.23 154.694 245.444C154.294 236.621 157.286 227.927 161.667 220.396C166.048 212.865 171.78 206.327 177.424 199.795C179.771 197.078 182.201 194.173 182.919 190.578C183.712 186.601 182.202 182.404 179.713 179.301C175.881 174.525 171.335 172.149 165.55 172.004C145.243 171.493 129.977 184.148 124.217 205.039C115.962 234.976 126.274 263.542 124.738 293.331C124.476 298.418 122.879 303.421 120.172 307.641C120.889 306.52 137.722 307.675 142.102 307.412Z" fill="#9E6652"/>
<path d="M285.242 248.198C270.065 246.815 250.968 255.881 246.41 270.384C241.853 255.881 218.569 246.956 203.391 248.34C163.339 251.991 149.781 301.978 166.762 335.593C175.902 353.685 189.036 369.504 203.365 383.708C215.365 395.603 246.315 420.83 246.41 420.744C246.504 420.83 277.455 395.602 289.454 383.708C303.783 369.504 316.917 353.685 326.057 335.593C343.039 301.977 325.293 251.85 285.242 248.198Z" fill="#B22759"/>
<path opacity="0.12" d="M318.271 339.84C308.289 353.335 296.73 366.004 284.182 376.883C272.047 387.403 257.828 396.567 242.179 399.63C234.661 401.101 227.301 400.897 220.335 399.104C233.11 410.138 246.994 421.42 247.058 421.362C247.152 421.448 278.103 396.22 290.102 384.326C304.432 370.122 317.566 354.304 326.705 336.211C329.663 330.357 331.564 324.001 332.481 317.479C328.325 325.312 323.504 332.765 318.271 339.84Z" fill="black"/>
<path d="M317.604 325.633C307.116 325.931 296.628 326.229 286.14 326.526C282.344 311.117 278.549 295.708 274.754 280.299C274.205 278.071 271.248 278.239 270.624 280.299C262.504 307.122 254.384 333.945 246.264 360.767C245.794 362.32 245.323 363.874 244.853 365.428C239.331 347.77 233.81 330.114 228.289 312.456C227.403 309.625 226.518 306.793 225.633 303.961C225.099 302.254 222.582 301.577 221.718 303.422C217.705 312.001 213.691 320.579 209.678 329.158C197.941 329.158 186.204 329.158 174.467 329.158C171.711 329.158 171.706 333.67 174.467 333.67C186.646 333.67 198.825 333.67 211.004 333.67C211.717 333.67 212.526 333.251 212.853 332.553C216.292 325.201 219.732 317.85 223.171 310.498C228.836 328.613 234.501 346.729 240.165 364.843C241.051 367.675 241.936 370.507 242.822 373.339C243.486 375.463 246.298 375.497 246.952 373.339C255.071 346.516 263.191 319.693 271.311 292.871C271.7 291.588 272.088 290.305 272.476 289.022C275.794 302.491 279.111 315.961 282.429 329.43C282.659 330.365 283.568 331.112 284.493 331.086C295.53 330.773 306.566 330.459 317.602 330.145C320.355 330.067 320.366 325.555 317.604 325.633Z" fill="white"/>
<path d="M739.563 345.442C742.234 345.979 744.252 348.498 745.02 351.248C745.788 353.996 745.512 356.944 745.029 359.765C744.447 363.167 743.575 366.513 742.424 369.751C741.763 371.611 740.983 373.481 739.669 374.906C738.356 376.331 736.401 377.245 734.565 376.79C733.306 376.478 732.261 375.584 731.265 374.717C730.558 374.103 729.817 373.434 729.549 372.512C729.324 371.737 729.47 370.904 729.617 370.108C730.629 364.648 731.095 343.737 739.563 345.442Z" fill="#F2D263"/>
<path d="M743.464 353.208C743.391 352.846 743.292 352.489 743.165 352.138C742.77 351.04 741.968 349.483 741.037 348.786C741.038 348.787 737.774 347.02 738.414 348.233L739.741 350.747L731.992 348.451L726.02 351.243L724.268 360.213L728.248 368.695C733.116 369.196 738.252 370.918 741.19 365.507C742.062 363.902 742.479 362.074 742.887 360.276C743.412 357.959 743.93 355.498 743.464 353.208Z" fill="#EACDB0"/>
<path d="M605.267 239.144C610.452 238.907 615.637 238.67 620.821 238.432C621.101 234.083 621.05 229.71 620.669 225.37C620.715 225.897 629.012 221.289 629.746 220.243C631.859 217.235 632.105 212.18 632.984 208.6C634.857 200.974 636.616 192.387 632.791 185.619C628.829 178.61 620.257 176.21 612.516 175.998C602.796 175.73 591.944 178.715 586.946 187.501C582.432 195.436 588.127 207.139 589.753 215.531C590.555 219.668 591.778 224.39 595.427 226.137C597.365 227.064 599.715 226.964 601.445 228.27C604.496 230.574 603.809 235.501 605.267 239.144Z" fill="#EACDB0"/>
<path d="M571.631 172.329C571.053 166.669 570.475 161.01 569.897 155.35C569.683 153.249 569.475 151.067 570.12 149.066C571.193 145.736 574.403 143.657 577.624 142.738C580.846 141.82 584.238 141.785 587.497 141.03C590.976 140.223 594.358 138.59 597.917 138.755C604.685 139.069 609.865 145.682 616.554 146.808C625.816 148.368 634.321 143.897 639.913 155.38C640.941 157.49 641.226 159.919 642.132 162.089C643.302 164.893 645.433 167.105 647.098 169.616C654.421 180.655 652.053 197.41 643.177 206.766C638.873 211.302 637.112 215.406 631.183 216.86C633.898 211.046 630.312 187.883 622.879 185.284C620.91 184.597 614.996 187.134 612.815 187.47C607.983 188.213 603.287 189.03 598.742 191.013C591.996 193.955 584.673 196.041 577.373 196.616C576.439 196.689 575.395 196.726 574.69 196.077C574.026 195.466 573.889 194.452 573.795 193.529C573.074 186.461 572.352 179.395 571.631 172.329Z" fill="#3A3029"/>
<path d="M597.684 238.65C597.684 238.65 552.012 302.487 529.177 318.014L529.179 318.039C527.775 318.334 526.501 319.372 525.67 320.679C524.633 322.308 524.167 324.286 523.813 326.234C523.197 329.625 522.861 333.075 522.809 336.532C522.765 339.397 522.937 342.353 524.07 344.936C525.203 347.518 527.488 349.662 530.103 349.739C533.621 349.844 535.167 346.166 535.798 341.477C547.96 332.373 580.946 307.368 583.511 302.08C586.661 295.585 603.197 238.649 603.197 238.649H597.684V238.65Z" fill="#F2D263"/>
<path d="M690.176 658.683L692.261 667.909L676.829 681.528L665.985 674.498L672.659 663.075L688.091 649.456L690.176 658.683Z" fill="#3A3029"/>
<path d="M654.757 373.266L661.089 401.287L653.061 531.607L690.421 655.479L673.875 663.496L599.017 520.485L590.128 474.801L585.607 378.216L654.757 373.266Z" fill="#59595B"/>
<path d="M551.064 384.377L549.735 505.434L571.391 661.519H588.042L598.559 517.498L621.345 373.477L551.064 384.377Z" fill="#59595B"/>
<path d="M587.946 659.432V668.915L569.94 678.4L560.937 668.915L569.94 659.432H587.946Z" fill="#3A3029"/>
<path d="M674.565 407.532C674.795 418.577 674.465 433.462 670.437 434.007C669.683 434.109 668.959 433.715 668.299 433.336C661.334 429.33 656.406 423.692 649.541 419.821C642.345 415.765 634.113 413.61 626.04 412.1C613.968 409.777 601.629 408.335 589.329 408.109C579.66 407.931 569.945 408.799 560.317 409.643C552.306 410.345 544.852 412.846 536.692 412.25C528.328 411.639 520.089 408.941 512.94 404.311C512.678 404.142 512.401 403.949 512.292 403.646C512.173 403.315 512.289 402.947 512.404 402.615C514.112 397.683 515.34 392.799 518.442 388.715C521.906 384.154 524.369 378.359 526.873 373.168C532.092 362.349 537.007 351.008 540.654 339.482C546.165 323.814 552.463 308.553 557.791 292.834C561.484 281.938 564.852 270.849 569.863 260.519C573.787 252.431 580.78 240.616 589.204 237.054C592.055 235.849 595.201 235.741 598.272 235.648C607.587 235.366 616.904 235.084 626.219 234.802C629.615 234.699 633.147 234.624 636.244 236.098C640.883 238.307 643.506 243.44 645.798 248.228C656.078 269.7 662.632 292.851 666.304 316.725C668.22 329.191 669.993 341.681 671.374 354.218C672.914 368.208 673.971 382.262 674.195 396.338C674.22 397.904 674.456 402.285 674.565 407.532Z" fill="#F2D263"/>
<path d="M612.406 289.093C612.056 294.654 612.808 300.219 613.559 305.738C618.132 339.349 627.814 379.303 632.388 412.914C607.374 412.685 575.735 410.938 550.722 410.709C551.628 398.115 554.05 380.697 554.955 368.103C555.536 360.03 556.12 351.928 557.738 344.006C560.348 331.226 565.583 319.197 570.782 307.283C580.387 285.268 589.993 263.253 599.598 241.238C600.112 240.061 600.653 238.845 601.6 237.997C602.734 236.982 604.282 236.642 605.762 236.371C612.913 235.062 620.987 233.956 628.173 235.067C629.969 241.957 623.342 253.937 620.886 260.347C617.312 269.675 613.047 278.934 612.406 289.093Z" fill="white"/>
<path d="M649.033 251.149C649.033 251.149 701.218 321.288 727.311 338.349L727.309 338.377C728.913 338.701 730.368 339.841 731.318 341.277C732.503 343.068 733.035 345.241 733.439 347.381C734.143 351.106 734.527 354.898 734.587 358.695C734.636 361.843 734.44 365.091 733.145 367.928C732.082 370.259 728.763 374.178 726.01 372.879C722.436 371.191 721.768 365.614 719.049 363.01C716.893 360.946 713.562 359.66 711.111 357.871C704.742 353.224 698.4 348.535 692.112 343.765C686.069 339.181 680.041 334.555 674.221 329.659C671.329 327.226 667.021 324.398 665.227 320.842C661.628 313.706 642.733 251.15 642.733 251.15H649.033V251.149Z" fill="#F2D263"/>
<path d="M754.139 314.807C767.25 306.383 771.396 288.357 763.399 274.545C755.402 260.734 738.291 256.366 725.179 264.791C712.068 273.215 707.922 291.241 715.919 305.052C723.916 318.864 741.028 323.232 754.139 314.807Z" fill="#35383F"/>
<path d="M751.564 305.521C759.814 298.585 761.166 285.916 754.582 277.225C747.998 268.533 735.972 267.109 727.721 274.045C719.47 280.981 718.119 293.65 724.703 302.341C731.287 311.033 743.313 312.456 751.564 305.521Z" fill="#E5DED6"/>
<path d="M742.043 302.356L734.638 301.479L723.269 408.023L730.674 408.9L742.043 302.356Z" fill="#E5DED6"/>
<path d="M745.96 291.236C745.557 295.019 742.319 297.741 738.727 297.316C735.136 296.891 732.552 293.48 732.956 289.697C733.359 285.914 736.597 283.191 740.188 283.616C743.779 284.041 746.363 287.452 745.96 291.236Z" fill="#35383F"/>
<path opacity="0.13" d="M742.724 296.438L740.312 319.056C740.312 319.056 744.586 318.849 746.942 318.055L743.809 295.613L742.724 296.438Z" fill="black"/>
<path d="M575.94 375.487C574.783 385.914 574.922 396.573 575.78 407.038C577.558 428.754 583.012 452.747 601.153 470.321C620.352 488.919 655.021 495.696 680.52 484.354C704.867 473.526 717.698 451.232 725.478 430.393C729.044 420.842 731.683 411.02 733.662 401.12C734.697 395.934 735.707 390.667 736.103 385.393C736.121 385.149 736.151 384.906 736.172 384.662C736.743 377.761 723.432 376.536 722.86 383.448C722.57 386.958 722.031 390.454 721.449 393.928C720.816 397.707 720.069 401.468 719.214 405.21C718.967 406.293 718.706 407.374 718.444 408.455C718.415 408.576 718.392 408.669 718.375 408.742C718.363 408.785 718.35 408.835 718.335 408.893C718.17 409.52 718.009 410.146 717.842 410.772C717.205 413.146 716.521 415.511 715.786 417.864C712.585 428.11 708.458 438.193 702.779 447.641C702.455 448.181 702.123 448.717 701.79 449.253C702.255 448.5 701.423 449.82 701.194 450.166C700.382 451.393 699.539 452.606 698.663 453.802C697.017 456.051 695.252 458.241 693.351 460.35C692.463 461.336 691.544 462.304 690.594 463.251C690.147 463.696 689.694 464.136 689.233 464.571C688.927 464.86 688.615 465.144 688.306 465.431C688.21 465.521 688.001 465.704 687.844 465.84C685.824 467.549 683.709 469.176 681.436 470.666C680.314 471.402 679.159 472.106 677.972 472.773C677.411 473.088 676.838 473.386 676.27 473.693C677.807 472.86 675.359 474.121 674.96 474.303C672.307 475.507 669.519 476.526 666.627 477.33C666.337 477.411 666.037 477.481 665.748 477.567C665.711 477.578 665.678 477.588 665.646 477.598C665.63 477.601 665.616 477.604 665.6 477.607C664.917 477.745 664.241 477.903 663.554 478.035C661.926 478.346 660.275 478.59 658.611 478.771C657.058 478.938 655.498 479.026 653.929 479.103C653.824 479.108 653.669 479.111 653.521 479.113C653.633 479.113 653.77 479.113 653.939 479.113C653.706 479.113 653.472 479.115 653.239 479.115C653.153 479.115 653.101 479.115 653.114 479.115C653.046 479.115 652.979 479.116 652.911 479.115C651.866 479.095 650.823 479.08 649.776 479.029C646.109 478.85 642.527 478.331 638.909 477.75C638.889 477.747 638.866 477.743 638.842 477.739C638.504 477.666 638.165 477.595 637.828 477.518C637.075 477.348 636.325 477.166 635.579 476.971C633.807 476.51 632.057 475.981 630.341 475.384C628.975 474.908 627.66 474.359 626.323 473.832C626.292 473.82 626.265 473.81 626.238 473.799C626.212 473.786 626.187 473.774 626.157 473.759C625.882 473.622 625.597 473.497 625.319 473.364C624.491 472.966 623.674 472.551 622.872 472.118C621.68 471.477 620.517 470.799 619.387 470.087C618.764 469.694 618.15 469.29 617.546 468.877C617.235 468.665 615.56 467.408 615.964 467.741C613.842 466.056 611.836 464.296 609.993 462.406C609.109 461.5 608.261 460.573 607.446 459.627C607.221 459.366 606.107 457.978 606.548 458.553C606.122 458.006 605.699 457.459 605.291 456.903C601.95 452.354 599.341 447.529 597.136 442.588C597.088 442.481 597.044 442.373 596.997 442.265C596.939 442.128 596.866 441.952 596.823 441.846C596.596 441.272 596.364 440.701 596.144 440.126C595.629 438.78 595.147 437.428 594.695 436.07C593.833 433.477 593.084 430.865 592.428 428.24C591.139 423.075 590.216 417.864 589.572 412.644C589.424 411.444 589.291 410.244 589.172 409.043C589.111 408.421 589.057 407.798 588.998 407.175C589.155 408.849 588.959 406.634 588.929 406.226C588.76 403.859 588.642 401.492 588.572 399.126C588.449 394.95 588.475 390.777 588.641 386.613C588.765 383.497 589.021 380.402 589.319 377.31C587.28 377.632 585.126 377.506 583.259 377.265C580.834 376.954 578.311 376.396 575.94 375.487ZM638.805 477.731C637.872 477.533 638.458 477.667 638.805 477.731V477.731ZM597.065 442.421C597.087 442.471 597.09 442.479 597.065 442.421V442.421Z" fill="#4080BB"/>
<path d="M572.837 214.059C565.416 213.18 557.995 212.302 550.573 211.423C548.99 211.236 547.493 212.49 547.315 214.162C545.417 231.961 543.519 249.759 541.62 267.557C541.352 270.068 541.085 272.579 540.817 275.09C540.393 279.061 546.251 279.761 546.676 275.783C548.574 257.984 550.473 240.187 552.371 222.388C552.529 220.906 552.687 219.424 552.845 217.942C559.289 218.705 565.734 219.467 572.179 220.23C575.949 220.677 576.613 214.506 572.837 214.059Z" fill="#E5DED6"/>
<path d="M581.013 224.204L573.528 223.318L574.845 210.974L582.329 211.86C584.667 212.136 586.349 214.357 586.087 216.82L585.722 220.246C585.459 222.708 583.351 224.48 581.013 224.204Z" fill="#35383F"/>
<path d="M574.337 224.386L567.771 223.609C565.07 223.289 563.126 220.723 563.43 217.877L563.852 213.918C564.156 211.073 566.592 209.025 569.293 209.345L575.859 210.122L574.337 224.386Z" fill="#E5DED6"/>
<path d="M630.949 220.521C638.37 221.399 645.791 222.277 653.212 223.156C654.796 223.343 655.991 224.917 655.812 226.588C653.914 244.387 652.016 262.185 650.117 279.983C649.849 282.494 649.582 285.005 649.314 287.516C648.89 291.487 643.03 290.8 643.455 286.822C645.353 269.024 647.251 251.226 649.15 233.427C649.308 231.945 649.466 230.463 649.624 228.981C643.179 228.219 636.735 227.455 630.29 226.693C626.521 226.246 627.173 220.074 630.949 220.521Z" fill="#E5DED6"/>
<path d="M620.839 228.501L628.325 229.387L629.641 217.043L622.156 216.157C619.819 215.88 617.711 217.652 617.448 220.115L617.083 223.541C616.82 226.004 618.502 228.224 620.839 228.501Z" fill="#35383F"/>
<path d="M627.311 230.239L633.877 231.016C636.578 231.336 639.014 229.288 639.318 226.443L639.74 222.484C640.043 219.638 638.1 217.072 635.398 216.752L628.832 215.975L627.311 230.239Z" fill="#E5DED6"/>
<path opacity="0.13" d="M588.771 383.785C588.771 383.785 588.524 388.369 588.5 393.675L575.246 386.237L575.776 380.711L588.771 383.785Z" fill="black"/>
<path d="M538.734 275.33C536.912 286.464 536.43 297.98 536.65 309.252C537.04 329.245 539.94 351.331 552.077 367.5C564.923 384.613 589.192 390.83 607.696 380.372C625.364 370.387 635.339 349.853 641.68 330.661C644.587 321.866 646.848 312.821 648.645 303.705C649.586 298.929 650.511 294.079 651.003 289.223C651.026 288.999 651.056 288.774 651.081 288.55C651.761 282.197 642.388 281.077 641.707 287.441C641.36 290.673 640.839 293.891 640.288 297.091C639.688 300.57 639.01 304.034 638.254 307.48C638.036 308.477 637.808 309.472 637.579 310.468C637.276 311.786 637.761 309.744 637.484 310.872C637.342 311.448 637.203 312.025 637.059 312.602C636.514 314.788 635.935 316.966 635.321 319.132C632.645 328.567 629.32 337.853 624.921 346.556C624.641 347.11 624.354 347.66 624.068 348.21C624.606 347.177 623.886 348.541 623.698 348.882C623.074 350.012 622.429 351.13 621.761 352.231C620.506 354.302 619.169 356.32 617.74 358.263C617.071 359.171 616.382 360.063 615.671 360.935C615.338 361.344 614.999 361.75 614.656 362.152C614.427 362.418 614.195 362.68 613.965 362.944C613.779 363.158 613.024 363.958 613.868 363.063C612.294 364.731 610.652 366.319 608.892 367.768C608.069 368.446 607.223 369.094 606.356 369.71C605.947 370 605.528 370.275 605.115 370.558C606.236 369.791 604.453 370.954 604.163 371.121C602.237 372.231 600.222 373.171 598.143 373.913C597.934 373.987 597.719 374.052 597.511 374.131C596.435 374.542 598.52 373.877 597.405 374.168C596.915 374.296 596.43 374.442 595.939 374.563C594.774 374.85 593.596 375.077 592.41 375.244C591.304 375.399 590.196 375.48 589.084 375.552C588.792 375.572 587.937 375.563 589.091 375.561C588.849 375.562 588.606 375.569 588.363 375.563C587.624 375.546 586.887 375.533 586.147 375.486C583.558 375.324 581.044 374.848 578.506 374.316C578.278 374.268 577.601 374.065 578.643 374.358C578.345 374.274 578.048 374.191 577.751 374.102C577.225 373.946 576.701 373.779 576.181 373.6C574.944 373.177 573.727 372.691 572.536 372.141C571.588 371.705 570.68 371.199 569.754 370.716C568.713 370.172 570.619 371.297 569.64 370.648C569.451 370.522 569.254 370.408 569.063 370.285C568.493 369.919 567.932 369.537 567.381 369.14C566.563 368.55 565.767 367.927 564.996 367.272C564.57 366.91 564.152 366.539 563.741 366.159C563.494 365.93 561.985 364.391 562.933 365.401C561.398 363.765 559.959 362.052 558.654 360.205C558.065 359.372 557.501 358.519 556.962 357.649C556.794 357.377 555.879 355.779 556.537 356.963C556.201 356.359 555.866 355.756 555.546 355.142C553.364 350.956 551.71 346.516 550.347 341.968C550.278 341.737 550.213 341.505 550.147 341.272C550.474 342.411 550.23 341.572 550.155 341.285C550.017 340.757 549.876 340.23 549.743 339.702C549.433 338.463 549.146 337.219 548.88 335.969C548.374 333.583 547.948 331.177 547.589 328.762C546.883 324.007 546.439 319.21 546.192 314.405C546.135 313.3 546.089 312.195 546.053 311.089C546.034 310.516 546.021 309.943 546.005 309.369C546.049 310.911 545.998 308.871 545.993 308.495C545.968 306.316 545.98 304.137 546.025 301.958C546.105 298.113 546.29 294.272 546.574 290.438C546.906 285.962 547.461 281.534 548.009 277.086C548.035 276.869 548.074 276.653 548.108 276.438C548.542 273.791 546.374 271.233 543.948 270.946C541.287 270.633 539.169 272.675 538.734 275.33Z" fill="#4080BB"/>
<path d="M525.633 334.648C525.761 334.992 525.912 335.328 526.092 335.654C526.649 336.669 527.679 338.07 528.704 338.601C528.703 338.6 532.194 339.79 531.377 338.702L529.683 336.446L537.682 337.396L543.15 333.629L543.508 324.478L538.282 316.782C533.402 317.113 528.069 316.285 525.997 322.124C525.382 323.856 525.249 325.73 525.121 327.574C524.957 329.951 524.823 332.468 525.633 334.648Z" fill="#EACDB0"/>
<path d="M279.514 98.9419V76.9941H282.025V96.8368H289.788V98.9412H279.514V98.9419Z" fill="black"/>
<path d="M293.27 76.9941H295.781V98.9419H293.27V76.9941Z" fill="black"/>
<path d="M301.831 76.9941H312.334V79.0986H304.342V86.7353H311.677V88.8397H304.342V98.9412H301.831V76.9941Z" fill="black"/>
<path d="M316.614 76.9941H327.688V79.0986H319.126V86.7353H327.088V88.8397H319.126V96.8368H328.259V98.9412H316.614V76.9941Z" fill="black"/>
<path d="M279.514 113.072H282.025V135.02H279.514V113.072Z" fill="black"/>
<path d="M300.747 113.072H303.258V135.02H300.518L290.587 117.522V135.02H288.075V113.072H290.815L300.747 130.6V113.072Z" fill="black"/>
<path d="M320.511 125.308C321.339 126.171 321.752 127.499 321.752 129.292C321.752 131.085 321.157 132.559 319.968 133.712C318.779 134.864 317.057 135.441 314.802 135.441C312.548 135.441 310.897 134.95 309.851 133.968C308.804 132.985 308.148 131.572 307.882 129.728L309.937 129.338C310.298 131.983 311.849 133.305 314.588 133.305C317.689 133.305 319.24 132.013 319.24 129.427C319.24 128.305 318.955 127.474 318.384 126.932C317.814 126.391 316.862 125.931 315.53 125.549L313.647 124.979C311.687 124.417 310.307 123.701 309.508 122.829C308.71 121.957 308.31 120.624 308.31 118.83C308.31 117.037 308.881 115.559 310.023 114.396C311.164 113.234 312.824 112.652 315.003 112.652C317.181 112.652 318.765 113.144 319.755 114.126C320.744 115.108 321.371 116.521 321.639 118.365L319.584 118.756C319.222 116.11 317.776 114.787 315.246 114.787C312.297 114.787 310.822 116.08 310.822 118.665C310.822 119.788 311.084 120.624 311.607 121.175C312.13 121.727 313.02 122.182 314.275 122.543L316.245 123.114C318.26 123.715 319.683 124.447 320.511 125.308Z" fill="black"/>
<path d="M338.134 113.072H340.645V127.774C340.645 129.117 340.492 130.27 340.189 131.231C339.884 132.194 339.508 132.94 339.062 133.472C338.614 134.003 338.039 134.424 337.335 134.734C336.63 135.045 335.979 135.241 335.38 135.321C334.78 135.4 334.081 135.441 333.282 135.441C332.483 135.441 331.784 135.4 331.185 135.321C330.586 135.241 329.938 135.045 329.244 134.734C328.55 134.424 327.979 134.003 327.532 133.472C327.085 132.94 326.708 132.194 326.405 131.231C326.1 130.269 325.948 129.117 325.948 127.774V113.072H328.46V127.684C328.46 130.009 328.983 131.552 330.029 132.314C330.543 132.674 331.047 132.915 331.542 133.035C332.036 133.155 332.622 133.216 333.297 133.216C333.972 133.216 334.558 133.155 335.053 133.035C335.547 132.915 336.052 132.674 336.566 132.314C337.612 131.572 338.135 130.03 338.135 127.684V113.072H338.134Z" fill="black"/>
<path d="M346.267 113.072H352.574C353.811 113.072 354.872 113.263 355.757 113.644C356.642 114.024 357.302 114.546 357.74 115.207C358.558 116.449 358.967 117.893 358.967 119.536C358.967 122.683 357.769 124.688 355.371 125.549C355.885 125.951 356.342 126.612 356.741 127.534L359.823 135.02H357.141L354.258 127.894C353.954 127.173 353.573 126.682 353.117 126.421C352.66 126.161 352.022 126.011 351.204 125.97H348.778V135.02H346.267V113.072ZM348.779 123.866H352.461C353.849 123.866 354.862 123.449 355.5 122.619C356.137 121.787 356.456 120.755 356.456 119.522C356.456 118.289 356.138 117.257 355.5 116.425C354.862 115.594 353.849 115.177 352.461 115.177H348.779V123.866Z" fill="black"/>
<path d="M368.785 113.072H372.125L378.945 135.02H376.463L374.436 128.406H366.502L364.476 135.02H361.993L368.785 113.072ZM370.47 115.417L367.13 126.301H373.78L370.47 115.417Z" fill="black"/>
<path d="M395.127 113.072H397.638V135.02H394.898L384.966 117.522V135.02H382.455V113.072H385.195L395.127 130.6V113.072Z" fill="black"/>
<path d="M410.795 114.816C409.026 114.816 407.703 115.338 406.829 116.38C406.048 117.282 405.573 118.765 405.402 120.83C405.326 121.691 405.287 122.753 405.287 124.016C405.287 125.279 405.325 126.357 405.402 127.248C405.477 128.14 405.634 128.987 405.872 129.788C406.11 130.59 406.429 131.231 406.829 131.712C407.704 132.755 409.026 133.276 410.795 133.276C413.726 133.276 415.238 131.632 415.334 128.345L417.389 128.465C417.255 130.69 416.68 132.409 415.662 133.621C414.644 134.834 413.022 135.441 410.795 135.441C407.656 135.441 405.516 134.419 404.374 132.374C403.784 131.352 403.37 130.18 403.132 128.857C402.894 127.534 402.775 125.925 402.775 124.031C402.775 122.137 402.894 120.528 403.132 119.205C403.37 117.882 403.784 116.71 404.374 115.688C405.516 113.663 407.656 112.651 410.795 112.651C412.869 112.651 414.41 113.147 415.419 114.139C416.427 115.131 417.046 116.549 417.274 118.393L415.248 118.784C414.848 116.139 413.364 114.816 410.795 114.816Z" fill="black"/>
<path d="M421.897 113.072H432.971V115.177H424.409V122.813H432.371V124.918H424.409V132.915H433.541V135.019H421.896V113.072H421.897Z" fill="black"/>
</svg>
