<?xml version="1.0" encoding="utf-8"?>
<!-- Generator: Adobe Illustrator 27.5.0, SVG Export Plug-In . SVG Version: 6.00 Build 0)  -->
<svg version="1.1" xmlns="http://www.w3.org/2000/svg" xmlns:xlink="http://www.w3.org/1999/xlink" x="0px" y="0px"
	 viewBox="0 0 1500 1122" style="enable-background:new 0 0 1500 1122;" xml:space="preserve">
<g id="background">
	<rect style="fill:#FFFFFF;" width="1500" height="1122"/>
</g>
<g id="shadow">
	<path style="opacity:0.12;fill:#606060;" d="M1261.829,851.797H302.512c-30.344,0-55.171,15.042-55.171,33.427l0,0
		c0,12.731,11.909,23.854,29.306,29.495h-84.476c-30.344,0-55.171,15.042-55.171,33.427l0,0c0,18.385,24.827,33.427,55.171,33.427
		h29.436c-8.221,5.841-13.209,13.397-13.209,21.629v13.371c0,18.385,24.827,33.427,55.171,33.427h945.039
		c30.344,0,55.171-15.042,55.171-33.427v-13.371c0-18.385-24.827-33.427-55.171-33.427l-64.257,0.743
		c4.895,0,12.842-2.339,18.174-7.043c9.349-8.247,9.763-20.799,5.193-31.189c-2.963-6.736-7.71-12.077-19.472-14.086l113.586,0.451
		c30.344,0,55.171-15.042,55.171-33.427l0,0C1317,866.839,1292.173,851.797,1261.829,851.797z"/>
</g>
<g id="object">
	<g>
		<g>
			<polygon style="fill:#EBCEB1;" points="921.557,450.174 939.551,437.884 934.634,429.964 920.448,435.652 919.86,430.827 
				905.743,443.22 909.744,452.143 			"/>
			<path style="fill:#8C9498;" d="M909.116,437.421c0,0,7.033,18.111,7.034,18.113c0.964,2.972-67.198,41.447-73.267,44.208
				c-13.363,6.082-37.594,20.431-37.594,20.431c-18.584,0.232-53.579-9.284-65.267-14.313c-4.708-2.026-8.064-12.453-10.921-16.6
				c-3.623-5.259,0.99-14.528,4.096-18.817c6.37-8.797,16.147-15.059,26.802-17.166c3.827-0.757,7.838-0.987,11.596,0.059
				c3.873,1.078,8.828-16.762,12.115-14.446c5.838,4.115,9.074,31.274,16.025,33.64
				C808.464,475.502,907.055,433.159,909.116,437.421z"/>
		</g>
		<path style="fill:#8C9498;" d="M765.93,356.387c-0.403,0.013-0.804,0.029-1.203,0.049c-19.121,0.931-42.275,26.032-55.688,40.847
			c-34.623,38.242-58.806,82.066-76.905,131.062c-9.746,26.382-18.351,53.195-26.416,80.158
			c-2.228,7.449-17.878,75.576-21.673,76.06c38.919-4.971,78.102-8.857,116.866-6.168c38.764,2.689,77.315,12.195,110.55,32.639
			c17.016-87.43,29.597-177.967,33.718-266.562c0.493-10.596,2.108-21.528,1.111-32.059c-1.149-12.129-7.127-17.594-13.912-26.803
			c-2.324-3.155-4.667-6.33-7.509-8.939C809.885,362.923,785.962,355.735,765.93,356.387z"/>
		<g>
			<g>
				<polygon style="fill:#EBCEB1;" points="633.144,651.401 673.646,815.787 674.551,936.955 694.216,941.207 701.901,828.518 
					721.205,622.145 				"/>
			</g>
			<polygon style="fill:#514943;" points="694.465,944.604 697.642,956.894 694.854,981.006 678.918,981.035 672.95,946.18 
				674.8,940.352 			"/>
		</g>
		<g>
			<polygon style="fill:#EBCEB1;" points="787.782,633.245 791.355,775.289 772.394,975.907 752.981,977.329 746.006,793.411 
				706.471,626.677 			"/>
			<polygon style="fill:#514943;" points="771.787,972.555 797.937,986.439 795.861,998.654 749.667,992.995 751.888,975.418 			"/>
		</g>
		<polygon style="fill:#9E6652;" points="793.473,651.572 806.631,815.684 793.244,928.232 740.657,925.253 731.285,797.295 
			708.544,657.792 712.077,636.073 787.865,637.183 		"/>
		<polygon style="fill:#9E6652;" points="713.748,803.742 707.569,921.455 661.86,919.111 662.791,807.475 633.968,667.279 
			640.544,628.091 717.42,632.876 		"/>
		<path style="fill:#FFFFF0;" d="M803.013,665.115c-46.901-8.091-122.897-27.69-169.799-35.781
			c24.545-81.49,63.611-172.015,109.158-243.595c8.261-12.983,18.583-26.529,33.367-29.609c15.84-3.301,43.609,7.14,46.685,24.856
			c4.501,25.919-4.841,61.665-7.724,87.873C808.175,528.159,814.352,606.53,803.013,665.115z"/>
		<g>
			<path style="fill:#EACDB0;" d="M794.867,298.944c17.638-30.696,56.718-10.758,59.251,19.942
				c1.669,20.222-17.991,42.489-38.312,44.059c-0.413,4.863-1.032,9.708-1.86,14.518c-5.137-1.402-10.274-2.804-15.411-4.206
				c-1.59-0.434-3.411-1.078-3.927-2.643c-0.312-0.948-0.037-1.978,0.239-2.937c0.929-3.234,1.857-6.468,2.786-9.702
				c-0.345-0.241-0.689-0.489-1.03-0.749c-8.459-6.452-12.304-17.694-11.817-28.322
				C785.273,318.276,789.567,308.168,794.867,298.944z"/>
			<g>
				<g>
					<path style="fill:#514943;" d="M795.996,309.33c-8.52,8.174-9.307,21.258-9.869,32.5c-0.498,9.969-1.981,15.922-12.561,13.112
						c-5.961-1.583-16.598-4.281-19.119-10.811c-1.907-4.946,5.095-13.43,8.807-16.31c2.835-2.199,7.082-1.838,9.857-4.112
						c1.144-0.937,1.923-2.239,2.63-3.537c2.888-5.305,4.968-11.049,6.146-16.973c0.801-4.023,1.202-8.176,2.795-11.956
						c2.309-5.48,9.233-9.638,13.718-13.43c8.344-7.054,27.29-12.434,34.15,0.164c1.562,2.869,1.537,6.314,1.316,9.573
						c-0.132,1.946-0.334,3.943-1.222,5.679c-3.542,6.924-10.436,4.777-16.499,5.768
						C808.667,300.217,801.434,304.113,795.996,309.33z"/>
					<path style="fill:#514943;" d="M845.103,337.248c-2.172,5.079-7.58,9.151-7.056,14.649c0.233,2.45,1.659,4.595,2.628,6.857
						c2.647,6.178,1.722,13.746-2.337,19.104c9.954,4.761,19.909,9.521,29.863,14.282c1.501,0.718,3.085,1.453,4.746,1.353
						c3.55-0.214,5.683-3.921,7.162-7.155c2.913-6.368,5.898-13.258,4.599-20.139c-0.602-3.191-2.103-6.159-2.695-9.351
						c-2.845-15.355,15.557-29.997,9.921-44.561c-2.515-6.499-9.099-10.348-13.554-15.706c-7.769-9.342-8.876-23.075-17.234-31.893
						c-15.786-16.654-46.754-3.018-44.378,20.111C818.706,303.661,853.849,316.794,845.103,337.248z"/>
				</g>
			</g>
		</g>
		<path style="fill:#8C9498;" d="M766.385,359.219c0,0-81.112,195.607-63.199,245.501c17.914,49.894,26.248,69.223,26.248,69.223
			l-124.203,5.191C605.232,679.134,684.509,393.371,766.385,359.219z"/>
		<g>
			<g>
				<rect x="473.719" y="128.323" style="fill:#755635;" width="335.542" height="447.771"/>
				<polygon style="opacity:0.26;" points="498.752,556.857 503.774,556.857 800.091,566.049 792.339,142.583 778.566,146.545 				
					"/>
				<rect x="490.641" y="142.583" style="fill:#FFFFF1;" width="301.697" height="414.274"/>
				<g>
					<g>
						<path style="fill:#C4D3D3;" d="M680.147,103.189h-2.033v-1.37c0-12.914-12.024-23.382-26.856-23.382h-19.536
							c-14.833,0-26.857,10.469-26.857,23.382v1.37h-2.033c-14.833,0-26.857,10.469-26.857,23.382v26.123h131.029v-26.123
							C707.004,113.658,694.98,103.189,680.147,103.189z M658.751,103.727h-34.522c-3.529,0-6.416-2.887-6.416-6.416
							c0-3.529,2.887-6.416,6.416-6.416h34.522c3.529,0,6.416,2.887,6.416,6.416C665.166,100.84,662.279,103.727,658.751,103.727z"
							/>
					</g>
					<rect x="575.976" y="140.395" style="opacity:0.12;" width="131.029" height="12.3"/>
				</g>
				<g>
					<rect x="529.962" y="293.984" style="fill:#CDCED0;" width="226.721" height="6.098"/>
					<rect x="529.962" y="338.946" style="fill:#CDCED0;" width="226.721" height="6.099"/>
					<rect x="529.962" y="383.908" style="fill:#CDCED0;" width="226.721" height="6.098"/>
					<rect x="529.962" y="428.869" style="fill:#CDCED0;" width="226.721" height="6.098"/>
				</g>
				<rect x="529.762" y="520.044" style="fill:#CDCED0;" width="83.342" height="2.152"/>
				<path style="fill:#CDCED0;" d="M730.276,481.778c-4.028-1.502-8.49-1.121-12.209,0.786c-0.558-0.292-1.133-0.561-1.736-0.786
					c-6.024-2.246-13.023-0.287-17.049,4.706c-3.934,4.878-4.456,11.869-1.257,17.267c3.248,5.48,9.683,8.31,15.919,7.164
					c1.485-0.273,2.875-0.768,4.151-1.441c2.962,1.511,6.407,2.064,9.794,1.441c7.166-1.317,12.167-7.742,12.312-14.899
					C740.074,489.692,736.256,484.008,730.276,481.778z M715.419,507.972c-4.966,1.787-10.644,0.278-14.056-3.751
					c-3.463-4.089-3.947-10.098-1.213-14.698c2.721-4.579,8.182-7.03,13.414-5.982c0.709,0.142,1.392,0.344,2.046,0.595
					c-0.872,0.685-1.675,1.468-2.384,2.347c-3.934,4.878-4.456,11.869-1.257,17.267c0.964,1.626,2.209,3.016,3.646,4.141
					C715.55,507.917,715.487,507.948,715.419,507.972z M723.796,496.016c-0.087,4.302-2.221,8.298-5.725,10.623
					c-1.02-0.66-1.956-1.466-2.762-2.419c-3.463-4.089-3.947-10.098-1.213-14.698c1-1.683,2.373-3.076,3.967-4.116
					C721.521,487.719,723.708,491.675,723.796,496.016z M729.364,507.972c-2.904,1.045-6.05,0.955-8.845-0.099
					c3.481-2.831,5.644-7.187,5.738-11.857c-0.095-4.686-2.22-9.017-5.746-11.856c2.195-0.842,4.619-1.095,6.998-0.619
					c5.969,1.195,10.109,6.467,10.231,12.475C737.633,501.316,734.419,506.152,729.364,507.972z"/>
			</g>
		</g>
	</g>
	<g>
		<g>
			<polygon style="fill:#EACDB0;" points="507.689,434.626 515.862,426.923 515.999,417.02 518.112,415.983 519.494,418.533 
				521.961,410.345 527.741,406.504 536.371,409.79 541.317,417.95 537.146,426.173 527.957,432.158 517.226,443.188 			"/>
			<polygon style="fill:#8AAD9F;" points="510.274,422.542 464.51,476.782 404.759,418.901 395.466,488.095 468.203,524.156 
				525.446,438.342 			"/>
		</g>
		<g>
			<polygon style="fill:#514943;" points="304.748,973.755 303.757,983.536 321.528,995.734 331.9,987.16 323.51,976.17 
				305.739,963.973 			"/>
			<polygon style="fill:#CAB5A1;" points="305.191,674.687 302.181,704.394 328.831,806.461 304.086,970.476 322.301,976.753 
				370.333,816.625 377.956,770.042 377.677,671.426 			"/>
		</g>
		<g>
			<polygon style="fill:#CAB5A1;" points="451.156,699.584 412.841,974.414 395.426,974.414 392.291,798.249 360.594,674.6 			"/>
			<polygon style="fill:#514943;" points="395.526,972.242 395.526,982.114 414.359,991.985 423.776,982.114 414.359,972.242 			"/>
		</g>
		<path style="fill:#8AAD9F;" d="M402.502,425.67c-1.379-2.255-3.222-4.176-5.75-5.602c-17.302-9.764-45.982-1.164-64.756-1.164
			c-5.548,58.418-20.887,114.093-30.795,171.449c-10.522,60.916-22.369,121.603-35.531,182.004
			c-0.745,3.42,52.251,1.695,57.249,1.779c50.985,0.86,117.725,0.684,166.922-14.731c-31.397-84.288-42.86-174.98-67.584-261.461
			c-4.341-15.183-9.495-30.138-13.404-45.443C406.587,443.628,406.936,432.92,402.502,425.67z"/>
		<path style="fill:#9E6652;" d="M382.235,337.259c12.906,3.53,23.066,15.474,24.481,28.779c7.053-6.571,10.654-16.659,9.355-26.21
			c-1.299-9.551-7.462-18.312-16.014-22.761c-8.001,4.246-14.205,11.76-16.861,20.42L382.235,337.259z"/>
		<path style="fill:#EACDB0;" d="M405.621,356.764c-6.668-35.207-50.655-29.124-63.274-0.613
			c-7.175,16.213,0.342,39.164,14.696,50.445c0.308,3.117,0.713,11.716,3.095,13.8c2.58,2.257,10.71,0.106,13.896-0.631
			c0.883-0.204,1.807-0.458,2.447-1.1c0.802-0.803,0.936-2.955,0.952-5.339c2.339-0.159,4.734-0.615,7.172-1.415
			c10.231-3.359,17.641-12.831,20.705-23.154C408.373,378.434,407.625,367.344,405.621,356.764z"/>
		<g>
			<polygon style="fill:#EACDB0;" points="359.965,550.911 371.664,554.74 381.268,549.68 383.374,551.17 381.644,553.837 
				390.817,551.919 397.544,555.469 398.905,565.498 393.644,574.536 383.543,574.832 372.965,569.125 356.724,564.578 			"/>
			<path style="fill:#8AAD9F;" d="M329.067,538.279c-4.931-3.334-8.321-8.07-8.761-15.051c-0.405-6.431,1.103-12.805,2.212-19.152
				c3.523-20.15,3.058-40.989-1.361-60.962c-4.397-19.874-27.582,5.115-30.465,14.081c-3.196,9.937-2.296,20.758-3.075,31.032
				c-1.046,13.795-1.541,27.632-1.484,41.467c0.036,8.753-2.119,29.429,7.096,34.437c2.492,1.355,5.353,1.829,8.153,2.284
				c4.398,0.714,56.91,7.336,57.733,4.742c0.002-0.006,7.254-22.885,7.254-22.885C355.444,546.033,339.079,545.048,329.067,538.279z
				"/>
		</g>
		<path style="fill:#9E6652;" d="M340.584,496.517c0.418-0.024,0.757-0.056,1.005-0.099c7.759-1.332,20.211-3.837,23.814-12.013
			c3.691-8.376-2.868-23.574-3.95-32.278c-1.645-13.232-2.192-26.577-2.829-39.886c-0.574-11.999,3.713-23.823,9.99-34.065
			c6.276-10.243,14.488-19.134,22.574-28.018c3.363-3.695,6.844-7.646,7.872-12.535c1.137-5.408-1.026-11.116-4.593-15.337
			c-5.489-6.495-12.002-9.727-20.29-9.924c-29.093-0.695-50.964,16.516-59.217,44.928c-11.826,40.715,2.947,79.564,0.747,120.077
			c-0.376,6.918-2.663,13.722-6.542,19.462C310.193,495.304,334.309,496.875,340.584,496.517z"/>
		<g>
			<path style="fill:#B22759;" d="M545.656,415.987c-21.744-1.882-49.104,10.448-55.633,30.172
				c-6.529-19.724-39.888-31.862-61.633-29.98c-57.381,4.966-76.805,72.948-52.476,118.664
				c13.094,24.605,31.911,46.119,52.44,65.437c17.191,16.177,61.533,50.486,61.668,50.369c0.135,0.117,44.477-34.193,61.668-50.369
				c20.529-19.318,39.346-40.831,52.44-65.437C628.46,489.126,603.036,420.953,545.656,415.987z"/>
			<path style="opacity:0.12;" d="M592.976,540.619c-14.301,18.354-30.861,35.584-48.839,50.379
				c-17.385,14.307-37.756,26.771-60.176,30.936c-10.77,2.001-21.315,1.723-31.295-0.715c18.302,15.006,38.194,30.349,38.285,30.271
				c0.135,0.117,44.477-34.193,61.668-50.369c20.53-19.318,39.346-40.831,52.44-65.437c4.237-7.961,6.961-16.605,8.274-25.476
				C607.38,520.862,600.472,530.998,592.976,540.619z"/>
			<path style="fill:#FFFFFF;" d="M592.019,521.298c-15.026,0.405-30.051,0.81-45.077,1.215
				c-5.438-20.957-10.875-41.913-16.313-62.869c-0.786-3.03-5.023-2.802-5.917,0c-11.633,36.479-23.266,72.958-34.899,109.436
				c-0.674,2.113-1.348,4.226-2.021,6.339c-7.911-24.014-15.821-48.027-23.731-72.041c-1.269-3.851-2.537-7.703-3.806-11.554
				c-0.765-2.322-4.371-3.242-5.608-0.733c-5.75,11.667-11.5,23.334-17.25,35.001c-16.815,0-33.63,0-50.445,0
				c-3.948,0-3.955,6.136,0,6.136c17.448,0,34.897,0,52.345,0c1.021,0,2.181-0.57,2.649-1.519
				c4.927-9.998,9.855-19.996,14.783-29.994c8.115,24.636,16.231,49.273,24.346,73.909c1.269,3.851,2.537,7.703,3.806,11.554
				c0.952,2.889,4.981,2.935,5.917,0c11.633-36.479,23.266-72.958,34.899-109.436c0.557-1.745,1.113-3.49,1.669-5.235
				c4.753,18.318,9.506,36.637,14.259,54.955c0.33,1.272,1.632,2.288,2.958,2.252c15.812-0.426,31.623-0.852,47.434-1.279
				C595.96,527.328,595.976,521.192,592.019,521.298z"/>
		</g>
	</g>
	<g>
		<path style="fill:#F2D263;" d="M1196.544,548.238c3.828,0.731,6.718,4.157,7.818,7.896c1.101,3.738,0.705,7.747,0.014,11.583
			c-0.834,4.627-2.084,9.178-3.732,13.581c-0.947,2.53-2.065,5.073-3.947,7.011c-1.882,1.938-4.683,3.181-7.313,2.562
			c-1.803-0.424-3.3-1.639-4.728-2.818c-1.012-0.836-2.074-1.745-2.458-2.999c-0.323-1.054-0.114-2.188,0.098-3.27
			C1183.745,574.359,1184.413,545.92,1196.544,548.238z"/>
		<g>
			<path style="fill:#EACDB0;" d="M1202.134,558.8c-0.105-0.492-0.246-0.978-0.428-1.456c-0.566-1.492-1.715-3.61-3.049-4.558
				c0.002,0.001-4.675-2.402-3.758-0.752l1.901,3.419l-11.102-3.122l-8.556,3.796l-2.51,12.199c0,0,5.703,11.536,5.703,11.536
				c6.974,0.681,14.332,3.023,18.541-4.336c1.249-2.183,1.847-4.668,2.431-7.114C1202.06,565.261,1202.802,561.914,1202.134,558.8z"
				/>
		</g>
	</g>
	<g>
		<g>
			<path style="fill:#EACDB0;" d="M1004.145,403.673c7.428-0.323,14.856-0.645,22.284-0.968c0.4-5.915,0.327-11.862-0.219-17.765
				c0.066,0.717,11.953-5.55,13.005-6.972c3.027-4.092,3.38-10.966,4.639-15.835c2.683-10.371,5.204-22.049-0.277-31.254
				c-5.676-9.532-17.957-12.796-29.047-13.085c-13.925-0.364-29.473,3.695-36.633,15.644c-6.467,10.792,1.692,26.708,4.022,38.121
				c1.148,5.627,2.901,12.048,8.129,14.424c2.776,1.261,6.143,1.125,8.621,2.901C1003.04,392.017,1002.056,398.718,1004.145,403.673
				z"/>
			<path style="fill:#3A3029;" d="M955.956,312.804c-0.828-7.697-1.656-15.394-2.484-23.091c-0.307-2.858-0.604-5.825,0.32-8.547
				c1.537-4.528,6.135-7.356,10.75-8.605c4.616-1.249,9.475-1.296,14.145-2.324c4.984-1.097,9.83-3.318,14.928-3.093
				c9.696,0.427,17.117,9.42,26.701,10.952c13.269,2.121,25.454-3.959,33.466,11.658c1.472,2.869,1.88,6.172,3.178,9.124
				c1.677,3.813,4.729,6.821,7.115,10.236c10.492,15.014,7.099,37.8-5.618,50.525c-6.166,6.169-8.688,11.75-17.183,13.728
				c3.89-7.908-1.247-39.409-11.897-42.944c-2.821-0.935-11.294,2.516-14.418,2.973c-6.922,1.011-13.651,2.122-20.162,4.818
				c-9.664,4.002-20.156,6.839-30.615,7.62c-1.338,0.1-2.833,0.15-3.844-0.733c-0.951-0.831-1.147-2.21-1.282-3.465
				C958.023,332.024,956.989,322.414,955.956,312.804z"/>
		</g>
		<path style="fill:#F2D263;" d="M993.28,403c0,0-65.432,86.819-98.148,107.936l0.003,0.034c-2.011,0.401-3.836,1.813-5.027,3.59
			c-1.486,2.216-2.153,4.906-2.66,7.555c-0.882,4.611-1.364,9.304-1.439,14.005c-0.062,3.896,0.184,7.917,1.807,11.429
			c1.623,3.512,4.897,6.428,8.643,6.533c5.04,0.142,7.255-4.86,8.16-11.237c17.424-12.381,64.681-46.388,68.356-53.58
			c4.513-8.833,28.204-86.266,28.204-86.266H993.28z"/>
		<g>
			<polygon style="fill:#3A3029;" points="1125.791,974.245 1128.778,986.793 1106.669,1005.315 1091.134,995.754 1100.695,980.219 
				1122.804,961.697 			"/>
			<polygon style="fill:#59595B;" points="1075.047,586.079 1084.119,624.188 1072.617,801.422 1126.142,969.889 1102.437,980.792 
				995.191,786.296 982.455,724.166 975.979,592.811 			"/>
		</g>
		<g>
			<polygon style="fill:#59595B;" points="926.49,601.19 924.586,765.827 955.611,978.103 979.467,978.103 994.534,782.234 
				1027.179,586.365 			"/>
			<polygon style="fill:#3A3029;" points="979.329,975.264 979.329,988.162 953.532,1001.061 940.633,988.162 953.532,975.264 			
				"/>
		</g>
		<path style="fill:#F2D263;" d="M1103.426,632.681c0.329,15.021-0.144,35.264-5.914,36.005c-1.081,0.139-2.118-0.396-3.063-0.912
			c-9.979-5.448-17.039-13.116-26.875-18.38c-10.309-5.517-22.103-8.448-33.669-10.501c-17.295-3.16-34.972-5.12-52.594-5.428
			c-13.853-0.242-27.771,0.938-41.565,2.086c-11.476,0.955-22.155,4.357-33.846,3.546c-11.983-0.831-23.787-4.501-34.029-10.797
			c-0.375-0.23-0.772-0.493-0.928-0.904c-0.17-0.451-0.005-0.951,0.16-1.403c2.447-6.707,4.207-13.349,8.651-18.904
			c4.963-6.203,8.491-14.084,12.078-21.144c7.477-14.714,14.519-30.137,19.744-45.813c7.896-21.308,16.918-42.063,24.551-63.441
			c5.291-14.818,10.117-29.9,17.296-43.948c5.621-11,15.64-27.068,27.709-31.912c4.085-1.639,8.591-1.787,12.991-1.913
			c13.346-0.383,26.693-0.767,40.039-1.15c4.865-0.14,9.926-0.243,14.362,1.762c6.647,3.004,10.404,9.985,13.688,16.497
			c14.728,29.202,24.118,60.687,29.378,93.156c2.746,16.953,5.286,33.94,7.264,50.99c2.206,19.027,3.721,38.14,4.041,57.284
			C1102.932,619.586,1103.269,625.544,1103.426,632.681z"/>
		<path style="fill:#FFFFFF;" d="M1014.373,471.603c-0.502,7.563,0.576,15.131,1.652,22.637
			c6.552,45.711,20.423,100.049,26.975,145.76c-35.836-0.312-81.164-2.688-117-3c1.298-17.127,4.768-40.816,6.065-57.943
			c0.832-10.98,1.669-21.998,3.987-32.773c3.739-17.38,11.239-33.739,18.687-49.943c13.762-29.94,27.523-59.881,41.285-89.821
			c0.736-1.601,1.511-3.255,2.868-4.408c1.624-1.38,3.842-1.843,5.963-2.211c10.245-1.78,21.812-3.285,32.106-1.774
			c2.574,9.371-6.921,25.664-10.439,34.382C1021.402,445.194,1015.291,457.786,1014.373,471.603z"/>
		<path style="fill:#F2D263;" d="M1066.846,420c0,0,74.764,95.388,112.146,118.591l-0.003,0.038
			c2.298,0.441,4.383,1.992,5.744,3.945c1.698,2.435,2.46,5.39,3.039,8.301c1.008,5.066,1.559,10.223,1.644,15.387
			c0.071,4.281-0.21,8.698-2.065,12.557c-1.524,3.17-6.279,8.5-10.223,6.733c-5.12-2.295-6.077-9.88-9.972-13.421
			c-3.089-2.808-7.861-4.557-11.373-6.989c-9.125-6.32-18.211-12.698-27.219-19.185c-8.657-6.234-17.293-12.525-25.632-19.184
			c-4.143-3.309-10.315-7.155-12.885-11.991c-5.156-9.705-32.226-94.781-32.226-94.781H1066.846z"/>
		<g>
			<g>
				
					<ellipse transform="matrix(0.8537 -0.5207 0.5207 0.8537 -70.9987 692.3043)" style="fill:#35383F;" cx="1196.72" cy="472.521" rx="39.84" ry="39.84"/>
				
					<ellipse transform="matrix(0.7816 -0.6237 0.6237 0.7816 -33.4088 849.6133)" style="fill:#E5DED6;" cx="1196.72" cy="472.521" rx="27.384" ry="27.384"/>
				
					<rect x="1181.388" y="488.565" transform="matrix(0.9937 0.1117 -0.1117 0.9937 70.1161 -128.9997)" style="fill:#E5DED6;" width="10.676" height="145.819"/>
				<path style="fill:#35383F;" d="M1205.71,474.517c-0.578,5.145-5.217,8.847-10.362,8.269s-8.847-5.217-8.269-10.362
					c0.578-5.145,5.217-8.847,10.362-8.269C1202.586,464.733,1206.288,469.372,1205.71,474.517z"/>
				<path style="opacity:0.13;" d="M1201.073,481.593l-3.456,30.76c0,0,6.124-0.281,9.499-1.361l-4.488-30.521L1201.073,481.593z"/>
			</g>
			<g>
				<path style="fill:#4080BB;" d="M962.129,589.099c-1.658,14.181-1.458,28.677-0.23,42.91
					c2.548,29.534,10.362,62.164,36.352,86.064c27.505,25.294,77.174,34.51,113.706,19.086
					c34.881-14.727,53.263-45.047,64.41-73.388c5.109-12.989,8.89-26.347,11.724-39.811c1.484-7.053,2.931-14.216,3.498-21.389
					c0.026-0.332,0.069-0.662,0.098-0.994c0.818-9.385-18.252-11.051-19.071-1.651c-0.416,4.774-1.188,9.528-2.022,14.253
					c-0.907,5.139-1.976,10.255-3.201,15.344c-0.355,1.473-0.729,2.943-1.104,4.413c-0.042,0.164-0.074,0.291-0.099,0.39
					c-0.017,0.059-0.035,0.126-0.057,0.206c-0.236,0.852-0.467,1.704-0.707,2.555c-0.912,3.229-1.892,6.445-2.945,9.645
					c-4.586,13.934-10.498,27.647-18.634,40.497c-0.465,0.734-0.941,1.463-1.418,2.192c0.667-1.024-0.525,0.771-0.853,1.242
					c-1.164,1.669-2.371,3.318-3.626,4.945c-2.359,3.058-4.887,6.037-7.61,8.905c-1.273,1.341-2.589,2.657-3.951,3.945
					c-0.64,0.605-1.289,1.204-1.949,1.796c-0.438,0.393-0.886,0.779-1.328,1.169c-0.138,0.122-0.438,0.371-0.662,0.557
					c-2.895,2.323-5.925,4.536-9.181,6.563c-1.607,1.001-3.262,1.958-4.963,2.865c-0.803,0.428-1.625,0.834-2.438,1.251
					c2.202-1.132-1.305,0.583-1.877,0.83c-3.8,1.638-7.795,3.023-11.938,4.117c-0.416,0.11-0.845,0.205-1.259,0.322
					c-0.054,0.015-0.101,0.029-0.147,0.042c-0.022,0.004-0.042,0.008-0.065,0.012c-0.979,0.188-1.948,0.403-2.932,0.582
					c-2.332,0.423-4.697,0.756-7.082,1.001c-2.225,0.228-4.46,0.347-6.707,0.452c-0.15,0.007-0.373,0.011-0.585,0.014
					c0.161,0,0.357-0.001,0.599-0.001c-0.334,0-0.669,0.003-1.003,0.004c-0.123,0-0.197,0-0.179,0c-0.097,0-0.193,0.001-0.29-0.001
					c-1.498-0.027-2.992-0.047-4.492-0.117c-5.254-0.243-10.386-0.949-15.569-1.739c-0.029-0.004-0.061-0.01-0.096-0.015
					c-0.484-0.099-0.969-0.196-1.452-0.3c-1.079-0.232-2.154-0.479-3.223-0.744c-2.539-0.628-5.046-1.347-7.504-2.159
					c-1.957-0.647-3.841-1.394-5.757-2.11c-0.044-0.017-0.082-0.03-0.121-0.045c-0.037-0.018-0.073-0.035-0.116-0.055
					c-0.394-0.186-0.803-0.356-1.201-0.537c-1.186-0.541-2.356-1.106-3.506-1.694c-1.707-0.872-3.373-1.794-4.992-2.763
					c-0.893-0.534-1.773-1.083-2.638-1.645c-0.445-0.289-2.845-1.998-2.267-1.546c-3.04-2.291-5.913-4.685-8.554-7.255
					c-1.266-1.232-2.481-2.493-3.649-3.779c-0.322-0.355-1.918-2.243-1.286-1.461c-0.61-0.744-1.216-1.488-1.801-2.244
					c-4.786-6.186-8.524-12.748-11.683-19.468c-0.069-0.146-0.133-0.293-0.2-0.44c-0.083-0.186-0.188-0.425-0.249-0.57
					c-0.325-0.78-0.657-1.557-0.973-2.339c-0.738-1.83-1.428-3.669-2.075-5.516c-1.235-3.526-2.309-7.078-3.248-10.648
					c-1.847-7.025-3.169-14.112-4.092-21.211c-0.212-1.632-0.403-3.264-0.573-4.897c-0.088-0.847-0.165-1.694-0.249-2.541
					c0.224,2.276-0.057-0.736-0.099-1.291c-0.243-3.219-0.412-6.438-0.512-9.656c-0.176-5.679-0.139-11.354,0.099-17.018
					c0.178-4.237,0.544-8.446,0.972-12.651c-2.922,0.437-6.008,0.266-8.683-0.061C969.14,591.095,965.526,590.335,962.129,589.099z
					 M1052.193,728.151C1051.696,728.064,1050.857,727.882,1052.193,728.151L1052.193,728.151z M992.394,680.129
					C992.43,680.208,992.425,680.197,992.394,680.129L992.394,680.129z"/>
			</g>
			<g>
				<path style="fill:#E5DED6;" d="M957.683,369.557c-10.632-1.195-21.264-2.389-31.896-3.584c-2.269-0.255-4.413,1.451-4.668,3.725
					c-2.72,24.206-5.439,48.411-8.159,72.617c-0.384,3.415-0.767,6.829-1.151,10.244c-0.607,5.401,7.786,6.353,8.394,0.943
					c2.72-24.206,5.44-48.411,8.159-72.617c0.227-2.016,0.453-4.031,0.679-6.047c9.233,1.038,18.466,2.075,27.7,3.112
					C962.141,378.558,963.093,370.165,957.683,369.557z"/>
				<g>
					<path style="fill:#35383F;" d="M969.397,383.354l-10.723-1.205l1.886-16.788l10.723,1.205c3.349,0.376,5.759,3.396,5.383,6.746
						l-0.523,4.659C975.766,381.32,972.746,383.73,969.397,383.354z"/>
					<path style="fill:#E5DED6;" d="M959.833,383.602l-9.407-1.057c-3.87-0.435-6.655-3.925-6.22-7.795l0.605-5.384
						c0.435-3.87,3.925-6.655,7.795-6.22l9.407,1.057L959.833,383.602z"/>
				</g>
			</g>
			<g>
				<path style="fill:#E5DED6;" d="M1040.938,378.345c10.632,1.195,21.264,2.389,31.896,3.584c2.269,0.255,3.981,2.395,3.725,4.668
					c-2.72,24.206-5.439,48.411-8.159,72.617c-0.384,3.415-0.767,6.829-1.151,10.244c-0.607,5.401-9.002,4.467-8.394-0.943
					c2.72-24.206,5.439-48.411,8.159-72.617c0.227-2.016,0.453-4.031,0.679-6.047c-9.233-1.037-18.466-2.075-27.699-3.112
					C1034.594,386.132,1035.528,377.737,1040.938,378.345z"/>
				<g>
					<path style="fill:#35383F;" d="M1026.454,389.198l10.724,1.205l1.886-16.788l-10.723-1.205
						c-3.349-0.376-6.369,2.034-6.746,5.383l-0.523,4.659C1020.695,385.802,1023.105,388.822,1026.454,389.198z"/>
					<path style="fill:#E5DED6;" d="M1035.725,391.562l9.407,1.057c3.87,0.435,7.36-2.35,7.795-6.22l0.605-5.384
						c0.435-3.87-2.35-7.36-6.22-7.795l-9.407-1.057L1035.725,391.562z"/>
				</g>
			</g>
			<path style="opacity:0.13;" d="M980.51,600.385c0,0-0.353,6.234-0.387,13.45l-18.989-10.116l0.759-7.515L980.51,600.385z"/>
			<g>
				<path style="fill:#4080BB;" d="M908.825,452.886c-2.611,15.142-3.301,30.803-2.986,46.133
					c0.558,27.191,4.714,57.228,22.102,79.218c18.403,23.273,53.173,31.729,79.683,17.506c25.312-13.58,39.603-41.506,48.688-67.607
					c4.164-11.962,7.404-24.263,9.978-36.661c1.348-6.495,2.674-13.091,3.378-19.695c0.033-0.305,0.077-0.61,0.112-0.915
					c0.975-8.641-12.454-10.164-13.43-1.509c-0.496,4.396-1.243,8.773-2.033,13.124c-0.859,4.732-1.831,9.443-2.913,14.129
					c-0.313,1.357-0.64,2.71-0.968,4.064c-0.434,1.792,0.261-0.984-0.136,0.549c-0.203,0.784-0.402,1.569-0.608,2.353
					c-0.782,2.974-1.611,5.935-2.491,8.881c-3.834,12.832-8.597,25.461-14.899,37.297c-0.401,0.753-0.812,1.501-1.222,2.249
					c0.77-1.405-0.261,0.451-0.53,0.914c-0.894,1.537-1.818,3.057-2.775,4.555c-1.799,2.817-3.714,5.561-5.762,8.203
					c-0.958,1.235-1.945,2.448-2.963,3.634c-0.478,0.557-0.963,1.109-1.455,1.655c-0.327,0.362-0.66,0.718-0.989,1.077
					c-0.267,0.292-1.349,1.38-0.14,0.162c-2.254,2.269-4.607,4.428-7.128,6.399c-1.18,0.922-2.392,1.804-3.634,2.641
					c-0.586,0.395-1.186,0.769-1.778,1.154c1.606-1.044-0.948,0.538-1.364,0.765c-2.759,1.51-5.645,2.788-8.624,3.797
					c-0.299,0.101-0.607,0.189-0.905,0.297c-1.542,0.559,1.445-0.346-0.153,0.05c-0.701,0.174-1.396,0.373-2.1,0.537
					c-1.669,0.391-3.356,0.699-5.055,0.926c-1.585,0.211-3.172,0.322-4.766,0.42c-0.418,0.026-1.643,0.015,0.01,0.012
					c-0.347,0.001-0.695,0.011-1.042,0.003c-1.06-0.024-2.116-0.042-3.175-0.105c-3.709-0.221-7.312-0.868-10.947-1.592
					c-0.327-0.065-1.297-0.341,0.196,0.057c-0.427-0.114-0.853-0.227-1.278-0.347c-0.754-0.213-1.504-0.44-2.25-0.683
					c-1.771-0.576-3.515-1.237-5.221-1.984c-1.358-0.594-2.66-1.281-3.986-1.939c-1.491-0.74,1.239,0.791-0.163-0.092
					c-0.271-0.171-0.554-0.327-0.827-0.494c-0.817-0.498-1.621-1.017-2.41-1.557c-1.172-0.802-2.312-1.65-3.417-2.541
					c-0.61-0.492-1.209-0.996-1.798-1.513c-0.354-0.311-2.516-2.405-1.158-1.031c-2.199-2.225-4.26-4.555-6.13-7.066
					c-0.844-1.133-1.651-2.294-2.424-3.477c-0.241-0.369-1.552-2.543-0.608-0.932c-0.482-0.822-0.962-1.642-1.42-2.477
					c-3.127-5.693-5.496-11.732-7.449-17.917c-0.099-0.314-0.192-0.63-0.287-0.946c0.469,1.549,0.12,0.407,0.012,0.017
					c-0.197-0.718-0.4-1.434-0.59-2.153c-0.445-1.684-0.856-3.377-1.236-5.077c-0.725-3.245-1.336-6.516-1.85-9.801
					c-1.011-6.467-1.648-12.991-2.002-19.526c-0.081-1.502-0.147-3.005-0.199-4.509c-0.027-0.78-0.045-1.559-0.069-2.339
					c0.063,2.096-0.009-0.678-0.016-1.189c-0.036-2.963-0.02-5.927,0.045-8.89c0.115-5.229,0.38-10.454,0.787-15.668
					c0.476-6.087,1.271-12.109,2.055-18.159c0.038-0.294,0.093-0.588,0.143-0.88c0.621-3.6-2.485-7.079-5.96-7.47
					C912.482,446.497,909.448,449.275,908.825,452.886L908.825,452.886z"/>
			</g>
		</g>
		<g>
			<path style="fill:#EACDB0;" d="M890.056,533.558c0.183,0.468,0.4,0.925,0.657,1.368c0.799,1.381,2.274,3.286,3.743,4.008
				c-0.002-0.001,5,1.617,3.83,0.137c0,0-2.427-3.068-2.427-3.068l11.46,1.293l7.833-5.124l0.513-12.445
				c0,0-7.486-10.467-7.487-10.467c-6.992,0.451-14.632-0.676-17.601,7.265c-0.881,2.356-1.071,4.904-1.254,7.412
				C889.088,527.17,888.895,530.593,890.056,533.558z"/>
		</g>
	</g>
	<g>
		<path d="M537.449,212.998v-29.849h3.598v26.986h11.122v2.862H537.449z"/>
		<path d="M557.157,183.149h3.598v29.849h-3.598V183.149z"/>
		<path d="M569.423,183.149h15.047v2.862h-11.449v10.386h10.508v2.862h-10.508v13.738h-3.598V183.149z"/>
		<path d="M590.602,183.149h15.865v2.862h-12.267v10.386h11.408v2.862h-11.408v10.876h13.085v2.862h-16.683V183.149z"/>
		<path d="M537.449,232.215h3.598v29.849h-3.598V232.215z"/>
		<path d="M567.869,232.215h3.598v29.849h-3.925l-14.229-23.797v23.797h-3.598v-29.849h3.925l14.229,23.838V232.215z"/>
		<path d="M596.184,248.856c1.186,1.173,1.778,2.979,1.778,5.418c0,2.439-0.852,4.443-2.555,6.011
			c-1.704,1.567-4.171,2.351-7.401,2.351c-3.23,0-5.595-0.667-7.094-2.003c-1.5-1.336-2.439-3.258-2.821-5.766l2.944-0.531
			c0.517,3.598,2.739,5.396,6.664,5.396c4.443,0,6.665-1.758,6.665-5.274c0-1.526-0.409-2.657-1.227-3.393
			c-0.817-0.736-2.181-1.362-4.089-1.881l-2.698-0.776c-2.808-0.764-4.784-1.738-5.929-2.924c-1.144-1.186-1.717-2.998-1.717-5.438
			c0-2.439,0.818-4.449,2.454-6.03c1.635-1.581,4.013-2.372,7.135-2.372c3.121,0,5.39,0.668,6.808,2.004
			c1.417,1.336,2.316,3.258,2.699,5.765l-2.944,0.532c-0.518-3.599-2.59-5.398-6.215-5.398c-4.225,0-6.338,1.758-6.338,5.274
			c0,1.527,0.375,2.665,1.125,3.414c0.749,0.75,2.024,1.37,3.823,1.86l2.821,0.777C592.96,246.689,594.998,247.685,596.184,248.856z
			"/>
		<path d="M621.432,232.215h3.598v19.994c0,1.827-0.219,3.395-0.654,4.702c-0.436,1.309-0.975,2.324-1.615,3.047
			c-0.641,0.723-1.465,1.295-2.474,1.717c-1.009,0.423-1.942,0.689-2.801,0.798c-0.859,0.108-1.86,0.163-3.005,0.163
			c-1.145,0-2.147-0.055-3.005-0.163c-0.858-0.109-1.786-0.375-2.78-0.798c-0.995-0.422-1.813-0.994-2.453-1.717
			c-0.641-0.723-1.18-1.738-1.615-3.047c-0.437-1.308-0.654-2.875-0.654-4.702v-19.994h3.598v19.872c0,3.162,0.75,5.261,2.249,6.297
			c0.736,0.49,1.458,0.817,2.167,0.981c0.708,0.163,1.547,0.245,2.515,0.245c0.967,0,1.806-0.082,2.515-0.245
			c0.708-0.164,1.431-0.491,2.167-0.981c1.499-1.009,2.249-3.107,2.249-6.297V232.215z"/>
		<path d="M633.084,232.215h9.037c1.771,0,3.292,0.26,4.559,0.777c1.268,0.518,2.214,1.227,2.842,2.126
			c1.172,1.69,1.758,3.653,1.758,5.888c0,4.28-1.717,7.006-5.152,8.178c0.736,0.546,1.39,1.445,1.962,2.699l4.416,10.181h-3.843
			l-4.13-9.691c-0.436-0.981-0.981-1.649-1.635-2.004c-0.654-0.354-1.568-0.558-2.74-0.613h-3.476v12.308h-3.598V232.215z
			 M636.683,246.894h5.275c1.989,0,3.441-0.566,4.354-1.696c0.913-1.131,1.37-2.535,1.37-4.212c0-1.676-0.456-3.08-1.37-4.211
			c-0.914-1.131-2.365-1.697-4.354-1.697h-5.275V246.894z"/>
		<path d="M665.345,232.215h4.784l9.772,29.849h-3.557l-2.903-8.995h-11.367l-2.903,8.995h-3.557L665.345,232.215z M667.758,235.404
			l-4.784,14.802h9.527L667.758,235.404z"/>
		<path d="M703.084,232.215h3.598v29.849h-3.925l-14.229-23.797v23.797h-3.598v-29.849h3.925l14.229,23.838V232.215z"/>
		<path d="M725.532,234.587c-2.535,0-4.43,0.709-5.683,2.126c-1.118,1.227-1.799,3.244-2.044,6.052
			c-0.109,1.172-0.164,2.616-0.164,4.334c0,1.717,0.054,3.183,0.164,4.395c0.108,1.213,0.333,2.365,0.674,3.455
			c0.341,1.09,0.797,1.962,1.37,2.616c1.254,1.418,3.148,2.127,5.683,2.127c4.198,0,6.365-2.235,6.502-6.706l2.944,0.163
			c-0.191,3.026-1.016,5.364-2.474,7.013c-1.458,1.649-3.782,2.474-6.972,2.474c-4.497,0-7.564-1.39-9.2-4.171
			c-0.845-1.39-1.438-2.984-1.779-4.783c-0.341-1.799-0.511-3.987-0.511-6.563c0-2.576,0.17-4.764,0.511-6.563
			c0.341-1.8,0.934-3.393,1.779-4.784c1.636-2.753,4.702-4.13,9.2-4.13c2.971,0,5.179,0.675,6.624,2.024
			c1.444,1.349,2.331,3.277,2.658,5.785l-2.903,0.532C731.338,236.386,729.212,234.587,725.532,234.587z"/>
		<path d="M741.437,232.215h15.865v2.862h-12.267v10.386h11.408v2.862h-11.408v10.876h13.084v2.862h-16.683V232.215z"/>
	</g>
</g>
</svg>
