<svg xmlns="http://www.w3.org/2000/svg" xmlns:xlink="http://www.w3.org/1999/xlink" version="1.1" x="0px" y="0px" viewBox="0 0 100 125" style="enable-background:new 0 0 100 100;" xml:space="preserve"><g><path d="M76.2,49.1c-1.8,0-3.3-1.5-3.3-3.3c0-9.9,0-19.9,0-29.8c0-3.2-0.2-3.4-3.3-3.4c-18,0-36,0-53.9,0   c-1.8,0-3.2,1.4-3.2,3.2c0,22.8,0,45.7,0,68.5c0,2.7,0.4,3.1,3.1,3.1c17.9,0,35.8,0,53.7,0c1.8,0,3.3,1.4,3.3,3.2l0,0   c0,1.8-1.5,3.3-3.3,3.3c-17.5,0-36.8,0-54.1,0c-4.9,0-8.2-2.3-9.1-6.4c-0.2-1-0.2-2-0.2-3C5.9,61.8,6,39,5.8,16.3   c0-3.5,0.8-6.3,3-8.2c1.5-1.4,3.6-2,5.6-2l56.7,0c2.1,0,4.1,0.7,5.7,2.1c2.2,2,2.9,4.9,2.9,8.4c-0.2,10.5-0.1,19-0.1,29.1   C79.6,47.6,78.1,49.1,76.2,49.1L76.2,49.1z"/><path d="M93,92.8L93,92.8c-1.5,1.5-3.9,1.5-5.4,0c-4.4-4.4-8.8-8.8-12.8-12.9c-3.3,0.5-6,1.4-8.6,1.3   c-7.5-0.2-13.5-6.4-13.8-14.1c-0.3-7.5,5.5-13.9,13.4-14.8c6.9-0.8,13.8,4.4,15.3,11.6c0.6,3,0.3,6-1,8.7c-0.5,1-0.3,1.5,0.4,2.3   c4.2,4.1,8.3,8.3,12.5,12.4C94.5,88.9,94.5,91.3,93,92.8z M66.8,75.3c4.9,0,8.6-3.6,8.7-8.4c0-4.8-3.7-8.6-8.4-8.6   c-4.8,0-8.6,3.7-8.7,8.4C58.3,71.5,61.9,75.3,66.8,75.3z"/><path d="M59.4,44.4c0,2.2,0,4.3,0,6.5c-13.6,0-27.2,0-40.9,0c0-2.1,0-4.2,0-6.5C32,44.4,45.6,44.4,59.4,44.4z"/><path d="M18.4,32.1c0-2.1,0-4.2,0-6.5c13.6,0,27.2,0,40.9,0c0,2.1,0,4.2,0,6.5C45.8,32.1,32.2,32.1,18.4,32.1z"/></g><text x="0" y="115" fill="#000000" font-size="5px" font-weight="bold" font-family="'Helvetica Neue', Helvetica, Arial-Unicode, Arial, Sans-serif">Created by Roselin Christina.S</text><text x="0" y="120" fill="#000000" font-size="5px" font-weight="bold" font-family="'Helvetica Neue', Helvetica, Arial-Unicode, Arial, Sans-serif">from the Noun Project</text></svg>