<svg width="31" height="31" viewBox="0 0 31 31" fill="none" xmlns="http://www.w3.org/2000/svg">
<path d="M24.411 15.1883C23.7996 15.1883 23.2902 14.6759 23.2902 14.0611C23.2902 10.6793 23.2902 7.26346 23.2902 3.88173C23.2902 2.78865 23.2222 2.72033 22.1693 2.72033C16.0557 2.72033 9.94213 2.72033 3.86248 2.72033C3.25112 2.72033 2.77562 3.19855 2.77562 3.81341C2.77562 11.6016 2.77562 19.424 2.77562 27.2122C2.77562 28.1345 2.91148 28.2712 3.82852 28.2712C9.90816 28.2712 15.9878 28.2712 22.0674 28.2712C22.6788 28.2712 23.1883 28.7494 23.1883 29.3643C23.1883 29.9791 22.6788 30.4915 22.0674 30.4915C16.1237 30.4915 9.56852 30.4915 3.69266 30.4915C2.0284 30.4915 0.907574 29.7058 0.601893 28.3053C0.533964 27.9637 0.533964 27.6222 0.533964 27.2806C0.533964 19.5265 0.567929 11.7383 0.5 3.98421C0.5 2.78864 0.771716 1.8322 1.51893 1.18318C2.0284 0.704953 2.74166 0.5 3.42095 0.5H22.6788C23.3921 0.5 24.0714 0.739112 24.6148 1.21734C25.362 1.90051 25.5998 2.89112 25.5998 4.08668C25.5318 7.67337 25.5658 10.5769 25.5658 14.0269C25.5658 14.6759 25.0563 15.1883 24.411 15.1883Z" fill="black"/>
<path d="M30.1176 30.1156C29.6081 30.628 28.793 30.628 28.2835 30.1156C26.7891 28.6126 25.2946 27.1097 23.936 25.7091C22.8152 25.8799 21.8982 26.1874 21.0151 26.1532C18.4678 26.0849 16.4299 23.967 16.328 21.3368C16.2261 18.7749 18.196 16.5887 20.8792 16.2813C23.2228 16.008 25.5663 17.7843 26.0758 20.2437C26.2796 21.2685 26.1777 22.2932 25.7362 23.2155C25.5663 23.5571 25.6343 23.7279 25.872 24.0012C27.2985 25.4017 28.6911 26.8364 30.1176 28.2369C30.627 28.7834 30.627 29.6033 30.1176 30.1156ZM21.2189 24.1378C22.8831 24.1378 24.1398 22.9081 24.1738 21.2685C24.1738 19.6289 22.9171 18.3308 21.3208 18.3308C19.6905 18.3308 18.3998 19.5947 18.3659 21.2002C18.3319 22.8398 19.5546 24.1378 21.2189 24.1378Z" fill="black"/>
<path d="M18.7059 13.5828C18.7059 14.3343 18.7059 15.0516 18.7059 15.8031C14.0868 15.8031 9.46759 15.8031 4.81445 15.8031C4.81445 15.0858 4.81445 14.3684 4.81445 13.5828C9.39966 13.5828 14.0188 13.5828 18.7059 13.5828Z" fill="black"/>
<path d="M4.7793 9.38122C4.7793 8.66388 4.7793 7.94654 4.7793 7.16089C9.39847 7.16089 14.0176 7.16089 18.6708 7.16089C18.6708 7.87823 18.6708 8.59556 18.6708 9.38122C14.0856 9.38122 9.4664 9.38122 4.7793 9.38122Z" fill="black"/>
</svg>
