<svg width="53" height="58" viewBox="0 0 53 58" fill="none" xmlns="http://www.w3.org/2000/svg">
<path id="Vector" d="M10.5022 1.13571L10.8431 0.777386L10.5022 1.13571C10.838 1.45522 11.0217 1.8831 11.0217 2.32366C11.0217 2.76421 10.838 3.19209 10.5022 3.5116L10.8211 3.84684L10.5022 3.5116C10.1655 3.83192 9.70375 4.01596 9.21739 4.01596H6.91304C6.1771 4.01596 5.46659 4.29387 4.93898 4.79583C4.41053 5.29859 4.10869 5.98596 4.10869 6.70827V15.4775C4.10869 18.5256 5.38164 21.4434 7.63869 23.5907C9.8949 25.7372 12.9499 26.939 16.1304 26.939C17.7058 26.939 19.2662 26.6439 20.7229 26.0698C22.1796 25.4958 23.5048 24.6538 24.6222 23.5907C25.7396 22.5276 26.6274 21.2642 27.2336 19.8719C27.8398 18.4795 28.1522 16.9862 28.1522 15.4775V6.70827C28.1522 5.98596 27.8503 5.29859 27.3219 4.79583C26.7943 4.29387 26.0838 4.01596 25.3478 4.01596H23.0435C22.5571 4.01596 22.0954 3.83192 21.7587 3.5116C21.4228 3.19209 21.2391 2.76421 21.2391 2.32366C21.2391 1.8831 21.4228 1.45522 21.7587 1.13571C22.0954 0.815393 22.5571 0.631348 23.0435 0.631348H25.3478C27.0565 0.631348 28.6905 1.27734 29.8914 2.41993C31.0916 3.56172 31.7609 5.10484 31.7609 6.70827V15.4775V15.4779C31.763 17.8655 31.1569 20.2192 29.9931 22.3377C28.8292 24.4564 27.1414 26.2778 25.0723 27.6441L25.0493 27.6593L25.0281 27.677C22.9062 29.442 21.1822 31.6007 19.9623 34.0224C18.7423 36.4443 18.0524 39.078 17.9352 41.7634L17.9348 41.7743V41.7852C17.9348 44.8333 19.2077 47.7511 21.4648 49.8984C23.721 52.0449 26.776 53.2467 29.9565 53.2467C33.1371 53.2467 36.192 52.0449 38.4482 49.8984C40.7053 47.7511 41.9782 44.8333 41.9782 41.7852V39.286V38.8939L41.5975 38.8004C39.5376 38.2944 37.7483 37.0924 36.561 35.4267C35.3742 33.7616 34.8687 31.7459 35.1343 29.7564C35.3999 27.7666 36.4199 25.9318 38.0105 24.5985C39.6018 23.2648 41.6539 22.526 43.7826 22.526C45.9113 22.526 47.9634 23.2648 49.5546 24.5985C51.1453 25.9318 52.1653 27.7666 52.4309 29.7564C52.6965 31.7459 52.191 33.7616 51.0042 35.4267C49.8169 37.0924 48.0276 38.2944 45.9677 38.8004L45.5869 38.8939V39.286V41.7852C45.5869 45.7144 43.9465 49.488 41.0178 52.2743C38.0882 55.0615 34.1098 56.6313 29.9565 56.6313C25.8032 56.6313 21.8248 55.0615 18.8952 52.2743C15.9665 49.488 14.3261 45.7144 14.3261 41.7852V41.7748L14.3257 41.7645C14.2145 39.0825 13.5319 36.4507 12.3202 34.029C11.1085 31.6074 9.39336 29.447 7.28008 27.678L7.25766 27.6592L7.23322 27.6432C5.15578 26.2815 3.45933 24.4622 2.28748 22.3432C1.11576 20.2244 0.50291 17.8684 0.5 15.4772V6.70827C0.5 5.10484 1.16928 3.56172 2.36942 2.41993C3.5704 1.27734 5.20438 0.631348 6.91304 0.631348H9.21739C9.70375 0.631348 10.1655 0.815393 10.5022 1.13571ZM40.1791 34.2863C41.1389 35.1994 42.4355 35.7083 43.7826 35.7083C45.1297 35.7083 46.4263 35.1994 47.3861 34.2863C48.3467 33.3724 48.8913 32.1274 48.8913 30.8237C48.8913 29.5199 48.3467 28.2749 47.3861 27.361C46.4263 26.4479 45.1297 25.939 43.7826 25.939C42.4355 25.939 41.1389 26.4479 40.1791 27.361C39.2185 28.2749 38.6739 29.5199 38.6739 30.8237C38.6739 32.1274 39.2185 33.3724 40.1791 34.2863Z" fill="#82534B" stroke="#82534B"/>
</svg>
