<svg width="55" height="71" viewBox="0 0 55 71" fill="none" xmlns="http://www.w3.org/2000/svg">
<path d="M38.0965 0L54.9996 18.4325V67.7729C55.0124 68.6159 54.6789 69.4294 54.0725 70.0345C53.4661 70.6397 52.6364 70.9869 51.7657 71H3.23436C2.80292 70.9935 2.37702 70.9048 1.98098 70.7389C1.58495 70.5731 1.22654 70.3333 0.926229 70.0333C0.625918 69.7333 0.389587 69.3789 0.230733 68.9905C0.0718784 68.602 -0.00638671 68.1871 0.000407282 67.7693V3.23066C0.000407282 1.44492 1.44872 0 3.23436 0H38.0965ZM35.9552 4.84244H4.85501V66.1611H50.145V22.5152H39.7722C37.1872 22.6146 35.1889 22.2099 33.7589 21.1165C32.0943 19.8455 31.4856 17.6799 31.5663 14.7936V4.85309H35.9699L35.9552 4.84244ZM30.888 51.6373C32.2263 51.6373 33.3153 52.7237 33.3153 54.0586C33.3211 54.3721 33.2628 54.6837 33.1438 54.9753C33.0248 55.267 32.8474 55.533 32.6218 55.758C32.3962 55.9831 32.1269 56.1627 31.8293 56.2865C31.5318 56.4104 31.2118 56.4761 30.888 56.4798H12.1332C11.8094 56.4761 11.4895 56.4104 11.1919 56.2865C10.8943 56.1627 10.625 55.9831 10.3994 55.758C10.1738 55.533 9.99642 55.267 9.8774 54.9753C9.75839 54.6837 9.70012 54.3721 9.70594 54.0586C9.70594 52.7237 10.7913 51.6373 12.1332 51.6373H30.888ZM42.0895 38.7289C43.4278 38.7289 44.5168 39.8117 44.5168 41.1501C44.5226 41.4637 44.4643 41.7752 44.3453 42.0669C44.2263 42.3586 44.0489 42.6246 43.8233 42.8496C43.5977 43.0746 43.3284 43.2542 43.0308 43.3781C42.7333 43.502 42.4134 43.5676 42.0895 43.5713H12.1332C11.8094 43.5676 11.4895 43.502 11.1919 43.3781C10.8943 43.2542 10.625 43.0746 10.3994 42.8496C10.1738 42.6246 9.99642 42.3586 9.8774 42.0669C9.75839 41.7752 9.70012 41.4637 9.70594 41.1501C9.70594 39.8117 10.7913 38.7289 12.1332 38.7289H42.0895ZM30.888 25.8204C32.2263 25.8204 33.3153 26.9032 33.3153 28.2417C33.3206 28.5549 33.262 28.8661 33.1427 29.1574C33.0235 29.4486 32.846 29.7142 32.6205 29.9389C32.3949 30.1635 32.1258 30.3428 31.8285 30.4664C31.5311 30.5901 31.2115 30.6556 30.888 30.6593H12.1332C11.8097 30.6556 11.4901 30.5901 11.1928 30.4664C10.8954 30.3428 10.6263 30.1635 10.4007 29.9389C10.1752 29.7142 9.99771 29.4486 9.87847 29.1574C9.75924 28.8661 9.7006 28.5549 9.70594 28.2417C9.70594 26.9032 10.7913 25.8204 12.1332 25.8204H30.888ZM36.2412 5.14776L36.4172 5.35722V14.8575C36.3732 16.416 36.5896 17.1864 36.7106 17.2716C37.0589 17.5414 38.0232 17.7367 39.6805 17.6763H47.7214L49.0964 19.1816L50.145 20.3141L36.2412 5.14776Z" fill="#82534B"/>
</svg>
