<svg width="31" height="31" viewBox="0 0 31 31" fill="none" xmlns="http://www.w3.org/2000/svg">
<path d="M22.1582 9.875H13.4949V8H22.1582V9.875ZM13.4949 15.5H22.1582V17.375H13.4949V15.5ZM15.7115 28.625L17.8773 30.5H0.5V0.5H26.4898V19.2939L24.324 21.1689V2.375H2.66582V28.625H15.7115ZM12.0905 6.78418L8.08037 10.2559L5.15313 7.72168L6.67597 6.40332L8.08037 7.61914L10.5677 5.46582L12.0905 6.78418ZM12.0905 14.2842L8.08037 17.7559L5.15313 15.2217L6.67597 13.9033L8.08037 15.1191L10.5677 12.9658L12.0905 14.2842ZM8.08037 22.6191L10.5677 20.4658L12.0905 21.7842L8.08037 25.2559L5.15313 22.7217L6.67597 21.4033L8.08037 22.6191ZM30.5 21.7842L21.0753 29.958L16.5237 26.0029L18.0465 24.6846L21.0753 27.292L28.9772 20.4658L30.5 21.7842Z" fill="black"/>
</svg>
