<svg width="69" height="68" viewBox="0 0 69 68" fill="none" xmlns="http://www.w3.org/2000/svg">
<g clip-path="url(#clip0_95_988)">
<path d="M41.8033 2.72144H27.7221C26.4772 2.72144 25.2833 3.23316 24.4031 4.14405C23.5228 5.05493 23.0283 6.29035 23.0283 7.57854V10.0071C23.0283 11.2953 23.5228 12.5307 24.4031 13.4416C25.2833 14.3525 26.4772 14.8642 27.7221 14.8642H41.8033C43.0482 14.8642 44.2421 14.3525 45.1223 13.4416C46.0026 12.5307 46.4971 11.2953 46.4971 10.0071V7.57854C46.4971 6.29035 46.0026 5.05493 45.1223 4.14405C44.2421 3.23316 43.0482 2.72144 41.8033 2.72144Z" stroke="#82534B" stroke-width="5" stroke-linecap="round" stroke-linejoin="round"/>
<path d="M47.6701 7.57849H54.7108C55.9556 7.57849 57.1495 8.09022 58.0297 9.0011C58.91 9.91199 59.4045 11.1474 59.4045 12.4356V61.0066C59.4045 62.2948 58.91 63.5302 58.0297 64.4411C57.1495 65.352 55.9556 65.8637 54.7108 65.8637H14.8139C13.569 65.8637 12.3751 65.352 11.4949 64.4411C10.6146 63.5302 10.1201 62.2948 10.1201 61.0066V12.4356C10.1201 11.1474 10.6146 9.91199 11.4949 9.0011C12.3751 8.09022 13.569 7.57849 14.8139 7.57849H21.8545" stroke="#82534B" stroke-width="5" stroke-linecap="round" stroke-linejoin="round"/>
<path d="M25.375 44.0069L32.4156 48.864L46.4969 29.4355" stroke="#82534B" stroke-width="5" stroke-linecap="round" stroke-linejoin="round"/>
</g>
<defs>
<clipPath id="clip0_95_988">
<rect width="69" height="68" fill="white"/>
</clipPath>
</defs>
</svg>
